<?xml version="1.0" encoding="UTF-8"?>
<!-- Generator: Adobe Illustrator 23.1.0, SVG Export Plug-In . SVG Version: 6.00 Build 0)  -->
<svg version="1.1" id="Слой_1" xmlns="http://www.w3.org/2000/svg" xmlns:xlink="http://www.w3.org/1999/xlink" x="0px" y="0px" viewBox="0 0 36.2 22.7" style="enable-background:new 0 0 36.2 22.7;" xml:space="preserve">
<style type="text/css">
	.st0{fill:#3A6CAF;}
	.st1{fill:#FFFFFF;}
</style>
<g id="Rectangle-1_4_">
	<path class="st0" d="M33.4,0C31.6,0,12.5,0,1.8,0C0.9,0,0,0.9,0,1.8v18.1c0,1.8,0.9,2.7,2.7,2.7c10.1,0,28.9,0,30.7,0   s2.7-0.9,2.7-2.7V2.7C36.1,0.9,35.2,0,33.4,0z"/>
</g>
<g id="Shape">
	<path class="st1" d="M3.3,8.3L2.6,6.6L1.9,8.3H3.3z M18.6,7.7c-0.1,0.1-0.3,0.1-0.5,0.1h-1.2V6.8h1.3c0.2,0,0.4,0,0.5,0.1   c0.1,0.1,0.2,0.2,0.2,0.4C18.8,7.4,18.7,7.6,18.6,7.7C18.6,7.7,18.7,7.6,18.6,7.7L18.6,7.7L18.6,7.7z M27.4,8.3l-0.7-1.7L26,8.3   H27.4L27.4,8.3L27.4,8.3L27.4,8.3z M11,10.2h-1V6.8l-1.5,3.3H7.6L6.1,6.8v3.3H4L3.6,9.2H1.5l-0.4,0.9H0l1.8-4.3h1.5l1.7,4v-4h1.7   l1.3,2.9l1.2-2.9H11L11,10.2L11,10.2L11,10.2L11,10.2z M15.1,10.2h-3.4V5.9h3.4v0.9h-2.4v0.8h2.3v0.9h-2.3v0.9h2.4V10.2L15.1,10.2   L15.1,10.2L15.1,10.2z M19.9,7.1c0,0.7-0.4,1-0.7,1.1c0.2,0.1,0.4,0.2,0.5,0.4c0.1,0.2,0.2,0.4,0.2,0.8v0.8h-1V9.6   c0-0.3,0-0.6-0.2-0.8c-0.2-0.1-0.4-0.2-0.7-0.2h-1.1v1.6h-1V5.9h2.3c0.5,0,0.9,0,1.2,0.2C19.7,6.3,19.9,6.6,19.9,7.1   C19.9,7.1,19.9,6.6,19.9,7.1L19.9,7.1L19.9,7.1z M21.5,10.2h-1V5.9h1V10.2L21.5,10.2L21.5,10.2L21.5,10.2z M33.6,10.2h-1.4L30.2,7   v3.2h-2.1l-0.4-0.9h-2.1l-0.4,0.9h-1.2c-0.5,0-1.1-0.1-1.5-0.5C22.2,9.3,22,8.8,22,8.1c0-0.6,0.1-1.2,0.6-1.7   c0.3-0.3,0.8-0.5,1.5-0.5h1v0.9h-1c-0.4,0-0.6,0.1-0.8,0.3c-0.2,0.2-0.3,0.5-0.3,1c0,0.5,0.1,0.8,0.3,1c0.2,0.2,0.4,0.2,0.7,0.2   h0.5L26,5.9h1.5l1.7,4v-4h1.6l1.8,3v-3h1L33.6,10.2L33.6,10.2L33.6,10.2L33.6,10.2z M0,11h1.7l0.4-0.9H3L3.4,11h3.4v-0.7L7.1,11   h1.8l0.3-0.7V11h8.5V9.4h0.2c0.1,0,0.2,0,0.2,0.2V11h4.4v-0.4c0.3,0.2,0.9,0.4,1.6,0.4h1.8l0.4-0.9h0.9l0.4,0.9h3.6v-0.9l0.5,0.9   h2.8V5.1h-2.8v0.7l-0.4-0.7h-2.9v0.7L28,5.1h-3.9c-0.7,0-1.2,0.1-1.7,0.3V5.1h-2.7v0.3c-0.3-0.3-0.7-0.3-1.2-0.3H8.7L8,6.6L7.3,5.1   H4.2v0.7L3.9,5.1H1.2L0,7.9L0,11L0,11z M36.2,14.1h-1.8c-0.2,0-0.3,0-0.4,0.1c-0.1,0.1-0.2,0.2-0.2,0.3c0,0.2,0.1,0.3,0.2,0.3   c0.1,0,0.2,0.1,0.4,0.1l0.6,0c0.6,0,0.9,0.1,1.2,0.3c0,0,0.1,0.1,0.1,0.1L36.2,14.1L36.2,14.1z M36.2,16.9   c-0.3,0.4-0.7,0.5-1.4,0.5h-2v-0.9h1.9c0.2,0,0.3,0,0.4-0.1c0.1-0.1,0.1-0.2,0.1-0.3s-0.1-0.2-0.1-0.3c-0.1-0.1-0.2-0.1-0.4-0.1   c-1,0-2.2,0-2.2-1.3c0-0.6,0.4-1.3,1.5-1.3h2v-0.9h-1.9c-0.6,0-1,0.1-1.3,0.4v-0.4h-2.8c-0.4,0-1,0.1-1.2,0.4v-0.4h-5v0.4   c-0.4-0.3-1.1-0.4-1.4-0.4h-3.3v0.4c-0.3-0.3-1-0.4-1.4-0.4h-3.7l-0.8,0.9l-0.8-0.9H7.2v5.9h5.4l0.9-0.9l0.8,0.9h3.3v-1.4h0.3   c0.4,0,1,0,1.4-0.2v1.6H22v-1.5h0.1c0.2,0,0.2,0,0.2,0.2v1.4h8.3c0.5,0,1.1-0.1,1.4-0.4v0.4h2.6c0.6,0,1.1-0.1,1.5-0.3L36.2,16.9   L36.2,16.9L36.2,16.9L36.2,16.9z M32.1,15.2c0.2,0.2,0.3,0.5,0.3,0.9c0,0.9-0.6,1.3-1.6,1.3h-2v-0.9h2c0.2,0,0.3,0,0.4-0.1   c0.1-0.1,0.1-0.2,0.1-0.3s-0.1-0.2-0.1-0.3c-0.1-0.1-0.2-0.1-0.4-0.1c-0.9,0-2.1,0-2.1-1.3c0-0.6,0.4-1.3,1.4-1.3h2v0.9h-1.9   c-0.2,0-0.3,0-0.4,0.1s-0.2,0.2-0.2,0.3c0,0.2,0.1,0.3,0.2,0.3c0.1,0,0.2,0.1,0.4,0.1l0.6,0C31.5,14.9,31.9,15,32.1,15.2   C32.1,15.2,31.9,15,32.1,15.2L32.1,15.2L32.1,15.2z M22.9,15c-0.1,0.1-0.3,0.1-0.5,0.1h-1.2v-1h1.3c0.2,0,0.4,0,0.5,0.1   c0.1,0.1,0.2,0.2,0.2,0.4C23.1,14.8,23.1,14.9,22.9,15C22.9,15,23.1,14.9,22.9,15L22.9,15L22.9,15z M23.5,15.5   c0.2,0.1,0.4,0.2,0.5,0.4c0.1,0.2,0.2,0.4,0.2,0.8v0.8h-1V17c0-0.3,0-0.6-0.2-0.8c-0.2-0.1-0.4-0.2-0.8-0.2h-1.1v1.5h-1v-4.3h2.3   c0.5,0,0.9,0,1.2,0.2c0.3,0.2,0.5,0.5,0.5,0.9C24.3,15,23.8,15.4,23.5,15.5C23.5,15.5,23.8,15.4,23.5,15.5L23.5,15.5L23.5,15.5z    M24.8,13.2h3.4v0.9h-2.4v0.8h2.3v0.9h-2.3v0.9h2.4v0.9h-3.4V13.2L24.8,13.2L24.8,13.2L24.8,13.2z M18,15.2h-1.3v-1.1H18   c0.4,0,0.6,0.1,0.6,0.5C18.6,15,18.4,15.2,18,15.2L18,15.2L18,15.2L18,15.2z M15.6,17.1l-1.6-1.7l1.6-1.7V17.1L15.6,17.1L15.6,17.1   L15.6,17.1z M11.6,16.6H9.1v-0.9h2.2v-0.9H9.1v-0.8h2.6l1.1,1.2L11.6,16.6L11.6,16.6L11.6,16.6L11.6,16.6z M19.7,14.6   c0,1.2-0.9,1.4-1.8,1.4h-1.3v1.4h-2l-1.3-1.4l-1.3,1.4h-4v-4.3h4.1l1.3,1.4l1.3-1.4H18C18.8,13.2,19.7,13.4,19.7,14.6   C19.7,14.6,19.7,13.4,19.7,14.6L19.7,14.6L19.7,14.6z"/>
</g>
</svg>