<?xml version="1.0" encoding="UTF-8"?>
<!-- Generator: Adobe Illustrator 23.1.0, SVG Export Plug-In . SVG Version: 6.00 Build 0)  -->
<svg version="1.1" id="Слой_1" xmlns="http://www.w3.org/2000/svg" xmlns:xlink="http://www.w3.org/1999/xlink" x="0px" y="0px" viewBox="0 0 36.41 22.95" style="enable-background:new 0 0 36.41 22.95;" xml:space="preserve">
<style type="text/css">
	.st0{fill:#FFFFFF;stroke:#C4C5C6;stroke-width:0.2835;stroke-miterlimit:10;}
	.st1{fill:#D97C17;}
</style>
<g id="Rectangle-1_5_">
	<path class="st0" d="M33.56,0.14c-1.81,0-20.93,0-31.61,0c-0.9,0-1.81,0.91-1.81,1.81v18.14c0,1.81,0.9,2.72,2.71,2.72   c10.07,0,28.9,0,30.71,0c1.81,0,2.71-0.91,2.71-2.72V2.87C36.27,1.05,35.37,0.14,33.56,0.14z"/>
</g>
<g id="DISCOVER">
	<g id="Rectangle-1-copy">
		<path class="st1" d="M11.24,22.76c9.73,0,20.92,0,22.29,0c1.81,0,2.72-0.91,2.72-2.72V9.27C36.25,9.27,30.85,18.77,11.24,22.76z"/>
	</g>
	<g id="NETWORK">
		<path d="M11.81,11.19h0.33l1.01,1.5h0.01v-1.5h0.25v1.83H13.1l-1.02-1.5h-0.01v1.5h-0.25L11.81,11.19L11.81,11.19z M13.86,11.19    h1.18v0.23h-0.93v0.55h0.87v0.23h-0.87v0.59h0.98v0.23h-1.23V11.19z M15.82,11.42h-0.59v-0.23h1.42v0.23h-0.59v1.6h-0.25    L15.82,11.42L15.82,11.42z M16.69,11.19h0.26l0.4,1.46h0.01l0.43-1.46h0.28l0.43,1.46h0.01l0.4-1.46h0.26l-0.53,1.83h-0.26    l-0.44-1.49h-0.01l-0.44,1.49h-0.26L16.69,11.19z M20.25,13.07c-0.14,0-0.27-0.02-0.38-0.07s-0.22-0.12-0.3-0.2    c-0.08-0.09-0.15-0.19-0.2-0.31c-0.05-0.12-0.07-0.24-0.07-0.38s0.03-0.26,0.07-0.38c0.05-0.12,0.11-0.22,0.2-0.3    c0.08-0.09,0.18-0.15,0.3-0.2c0.12-0.05,0.25-0.07,0.38-0.07c0.14,0,0.27,0.02,0.39,0.07c0.12,0.05,0.22,0.12,0.3,0.2    c0.08,0.09,0.15,0.19,0.2,0.3c0.05,0.12,0.07,0.24,0.07,0.38s-0.02,0.26-0.07,0.38s-0.11,0.22-0.2,0.31    c-0.08,0.09-0.18,0.15-0.3,0.2S20.39,13.07,20.25,13.07z M20.25,12.83c0.11,0,0.2-0.02,0.28-0.06s0.16-0.09,0.22-0.16    s0.11-0.14,0.14-0.23c0.03-0.09,0.05-0.18,0.05-0.28c0-0.1-0.02-0.19-0.05-0.28s-0.08-0.17-0.14-0.23    c-0.06-0.07-0.13-0.12-0.22-0.16c-0.08-0.04-0.18-0.06-0.28-0.06s-0.2,0.02-0.28,0.06s-0.16,0.09-0.22,0.16s-0.11,0.14-0.14,0.23    c-0.03,0.09-0.05,0.18-0.05,0.28c0,0.1,0.02,0.19,0.05,0.28s0.08,0.17,0.14,0.23c0.06,0.07,0.13,0.12,0.22,0.16    C20.05,12.82,20.14,12.83,20.25,12.83C20.25,12.83,20.14,12.83,20.25,12.83z M21.56,11.19h0.64c0.12,0,0.21,0.02,0.29,0.05    s0.14,0.07,0.18,0.12s0.08,0.1,0.09,0.17c0.02,0.06,0.03,0.12,0.03,0.18s-0.01,0.12-0.03,0.17s-0.05,0.1-0.09,0.15    c-0.04,0.04-0.09,0.08-0.14,0.11s-0.12,0.05-0.19,0.06l0.52,0.83h-0.31l-0.46-0.81h-0.28v0.81h-0.25V11.19L21.56,11.19z M21.81,12    h0.33c0.05,0,0.1,0,0.14-0.01c0.05-0.01,0.09-0.02,0.13-0.04s0.07-0.05,0.09-0.09s0.03-0.09,0.03-0.15c0-0.06-0.01-0.11-0.03-0.15    s-0.05-0.07-0.09-0.09s-0.08-0.04-0.13-0.04c-0.05-0.01-0.1-0.01-0.14-0.01h-0.33V12z M23.14,11.19h0.25v0.79h0.02l0.81-0.79h0.35    l-0.88,0.84l0.94,0.98h-0.36l-0.85-0.91H23.4v0.91h-0.25L23.14,11.19L23.14,11.19z"/>
	</g>
	<g>
		<path d="M3.22,5.52h1.7c0.29,0,0.56,0.04,0.83,0.13c0.26,0.09,0.5,0.22,0.7,0.4c0.2,0.18,0.37,0.4,0.49,0.68    C7.06,7,7.13,7.32,7.13,7.69S7.06,8.38,6.92,8.65S6.6,9.15,6.38,9.32C6.16,9.5,5.91,9.63,5.64,9.72C5.37,9.81,5.1,9.85,4.84,9.85    H3.23L3.22,5.52L3.22,5.52z M4.57,9.15c0.24,0,0.47-0.03,0.68-0.08s0.4-0.14,0.56-0.26s0.28-0.27,0.37-0.45    c0.09-0.19,0.14-0.41,0.14-0.68c0-0.26-0.04-0.49-0.12-0.67C6.12,6.82,6.01,6.67,5.86,6.55s-0.31-0.2-0.51-0.26    C5.15,6.23,4.93,6.21,4.7,6.21H4v2.93L4.57,9.15L4.57,9.15z M7.84,5.52h0.77v4.33H7.84V5.52z M11.68,6.45    c-0.08-0.12-0.19-0.2-0.33-0.26s-0.28-0.08-0.43-0.08c-0.09,0-0.18,0.01-0.26,0.03s-0.16,0.05-0.23,0.1    c-0.07,0.04-0.12,0.1-0.16,0.17s-0.06,0.16-0.06,0.25c0,0.15,0.05,0.26,0.15,0.34c0.1,0.08,0.23,0.14,0.38,0.2    c0.15,0.06,0.32,0.11,0.5,0.17c0.18,0.05,0.34,0.13,0.49,0.22s0.28,0.22,0.38,0.37c0.1,0.16,0.15,0.36,0.15,0.62    c0,0.23-0.04,0.44-0.13,0.61c-0.08,0.17-0.2,0.32-0.34,0.43c-0.14,0.11-0.31,0.2-0.5,0.26s-0.39,0.09-0.61,0.09    c-0.27,0-0.53-0.04-0.78-0.13S9.44,9.6,9.26,9.39l0.58-0.56c0.09,0.14,0.22,0.25,0.37,0.33s0.31,0.12,0.49,0.12    c0.09,0,0.18-0.01,0.27-0.04c0.09-0.02,0.17-0.06,0.24-0.11c0.07-0.05,0.13-0.11,0.18-0.19s0.07-0.16,0.07-0.26    c0-0.16-0.05-0.28-0.15-0.37c-0.1-0.09-0.23-0.16-0.38-0.22c-0.15-0.06-0.32-0.11-0.5-0.17c-0.18-0.05-0.34-0.12-0.5-0.22    C9.78,7.61,9.65,7.49,9.55,7.33C9.45,7.18,9.4,6.97,9.4,6.72c0-0.22,0.04-0.42,0.14-0.58c0.09-0.16,0.21-0.3,0.36-0.41    c0.15-0.11,0.32-0.19,0.51-0.24C10.6,5.44,10.8,5.41,11,5.41c0.23,0,0.45,0.03,0.66,0.1c0.21,0.07,0.41,0.18,0.58,0.34    c0,0-0.17-0.16,0,0L11.68,6.45z M16.04,6.54c-0.16-0.17-0.31-0.29-0.46-0.34c-0.15-0.06-0.3-0.09-0.45-0.09    c-0.22,0-0.43,0.04-0.61,0.12s-0.34,0.19-0.47,0.33s-0.23,0.3-0.3,0.49c-0.07,0.19-0.11,0.39-0.11,0.6c0,0.23,0.04,0.45,0.11,0.64    c0.07,0.2,0.17,0.36,0.3,0.51c0.13,0.14,0.29,0.25,0.47,0.34c0.18,0.08,0.38,0.12,0.61,0.12c0.17,0,0.34-0.04,0.51-0.13    c0.17-0.08,0.32-0.22,0.46-0.4l0.64,0.45c-0.19,0.27-0.43,0.46-0.71,0.59c-0.28,0.12-0.58,0.18-0.9,0.18    c-0.33,0-0.64-0.05-0.92-0.16c-0.28-0.11-0.52-0.26-0.72-0.46s-0.36-0.43-0.47-0.71c-0.12-0.27-0.18-0.58-0.18-0.91    c0-0.35,0.06-0.66,0.17-0.94c0.12-0.28,0.27-0.52,0.47-0.72s0.44-0.35,0.72-0.46s0.59-0.16,0.92-0.16c0.29,0,0.57,0.05,0.82,0.16    c0.25,0.1,0.48,0.28,0.7,0.53c0,0-0.22-0.25,0,0L16.04,6.54z M21.85,5.52h0.89l1.18,3.27l1.22-3.27h0.83l-1.75,4.33h-0.67    L21.85,5.52z M26.43,5.52h2.87v0.7h-2.1v1.06h1.99v0.7H27.2v1.17h2.21v0.7h-2.98V5.52L26.43,5.52z M30.17,5.52h1.5    c0.21,0,0.41,0.02,0.6,0.06s0.37,0.1,0.52,0.2S33.06,6,33.15,6.16c0.09,0.16,0.13,0.36,0.13,0.6c0,0.31-0.09,0.58-0.26,0.79    s-0.42,0.34-0.74,0.38l1.15,1.91H32.5l-1-1.83h-0.56v1.83h-0.77L30.17,5.52L30.17,5.52z M31.53,7.36c0.11,0,0.22-0.01,0.33-0.02    s0.21-0.03,0.3-0.07s0.17-0.1,0.22-0.18c0.06-0.08,0.08-0.19,0.08-0.33c0-0.13-0.03-0.23-0.08-0.31s-0.12-0.14-0.21-0.17    c-0.09-0.04-0.18-0.06-0.29-0.08c-0.1-0.01-0.2-0.02-0.3-0.02h-0.67v1.17L31.53,7.36L31.53,7.36z"/>
	</g>
	<g id="Oval-1">
		<circle class="st1" cx="19.51" cy="7.69" r="2.28"/>
	</g>
</g>
</svg>