<?xml version="1.0" encoding="UTF-8"?>
<!--!
Font Awesome Free 6.2.1 by @fontawesome - https://fontawesome.com
License - https://fontawesome.com/license/free (Icons: CC BY 4.0, Fonts: SIL OFL 1.1, Code: MIT License)
Copyright 2022 Fonticons, Inc.
-->
<svg xmlns="http://www.w3.org/2000/svg">
  <symbol id="upvote" viewBox="0 0 448 512">
    <path d="M272 480h-96c-13.3 0-24-10.7-24-24V256H48.2c-21.4 0-32.1-25.8-17-41L207 39c9.4-9.4 24.6-9.4 34 0l175.8 176c15.1 15.1 4.4 41-17 41H296v200c0 13.3-10.7 24-24 24z"/>
  </symbol>

  <symbol id="downvote" viewBox="0 0 448 512">
    <path d="M176 32h96c13.3 0 24 10.7 24 24v200h103.8c21.4 0 32.1 25.8 17 41L241 473c-9.4 9.4-24.6 9.4-34 0L31.3 297c-15.1-15.1-4.4-41 17-41H152V56c0-13.3 10.7-24 24-24z"/>
  </symbol>

  <symbol id="sticky" viewBox="0 0 384 512">
    <path d="M32 32C32 14.3 46.3 0 64 0H320c17.7 0 32 14.3 32 32s-14.3 32-32 32H290.5l11.4 148.2c36.7 19.9 65.7 53.2 79.5 94.7l1 3c3.3 9.8 1.6 20.5-4.4 28.8s-15.7 13.3-26 13.3H32c-10.3 0-19.9-4.9-26-13.3s-7.7-19.1-4.4-28.8l1-3c13.8-41.5 42.8-74.8 79.5-94.7L93.5 64H64C46.3 64 32 49.7 32 32zM160 384h64v96c0 17.7-14.3 32-32 32s-32-14.3-32-32V384z"/>
  </symbol>

  <symbol id="unsticky" viewBox="0 0 448 512">
    <path d="M306.5 186.6l-5.7-42.6H328c13.2 0 24-10.8 24-24V24c0-13.2-10.8-24-24-24H56C42.8 0 32 10.8 32 24v96c0 13.2 10.8 24 24 24h27.2l-5.7 42.6C29.6 219.4 0 270.7 0 328c0 13.2 10.8 24 24 24h144v104c0 .9.1 1.7.4 2.5l16 48c2.4 7.3 12.8 7.3 15.2 0l16-48c.3-.8.4-1.7.4-2.5V352h144c13.2 0 24-10.8 24-24 0-57.3-29.6-108.6-77.5-141.4zM50.5 304c8.3-38.5 35.6-70 71.5-87.8L138 96H80V48h224v48h-58l16 120.2c35.8 17.8 63.2 49.4 71.5 87.8z"/>
  </symbol>

  <symbol id="lock" viewBox="0 0 448 512">
    <path d="M144 144v48H304V144c0-44.2-35.8-80-80-80s-80 35.8-80 80zM80 192V144C80 64.5 144.5 0 224 0s144 64.5 144 144v48h16c35.3 0 64 28.7 64 64V448c0 35.3-28.7 64-64 64H64c-35.3 0-64-28.7-64-64V256c0-35.3 28.7-64 64-64H80z"/>
  </symbol>

  <symbol id="delete" viewBox="0 0 448 512">
    <path d="M135.2 17.7L128 32H32C14.3 32 0 46.3 0 64S14.3 96 32 96H416c17.7 0 32-14.3 32-32s-14.3-32-32-32H320l-7.2-14.3C307.4 6.8 296.3 0 284.2 0H163.8c-12.1 0-23.2 6.8-28.6 17.7zM416 128H32L53.2 467c1.6 25.3 22.6 45 47.9 45H346.9c25.3 0 46.3-19.7 47.9-45L416 128z"/>
  </symbol>

  <symbol id="undelete" viewBox="0 0 448 512">
    <path d="M163.8 0H284.2c12.1 0 23.2 6.8 28.6 17.7L320 32h96c17.7 0 32 14.3 32 32s-14.3 32-32 32H32C14.3 96 0 81.7 0 64S14.3 32 32 32h96l7.2-14.3C140.6 6.8 151.7 0 163.8 0zM32 128H416L394.8 467c-1.6 25.3-22.6 45-47.9 45H101.1c-25.3 0-46.3-19.7-47.9-45L32 128zm192 64c-6.4 0-12.5 2.5-17 7l-80 80c-9.4 9.4-9.4 24.6 0 33.9s24.6 9.4 33.9 0l39-39V408c0 13.3 10.7 24 24 24s24-10.7 24-24V273.9l39 39c9.4 9.4 24.6 9.4 33.9 0s9.4-24.6 0-33.9l-80-80c-4.5-4.5-10.6-7-17-7z"/>
  </symbol>

  <symbol id="private" viewBox="0 0 512 512">
    <path d="M288 32c0-17.7-14.3-32-32-32s-32 14.3-32 32V240c0 8.8-7.2 16-16 16s-16-7.2-16-16V64c0-17.7-14.3-32-32-32s-32 14.3-32 32V336c0 1.5 0 3.1 .1 4.6L67.6 283c-16-15.2-41.3-14.6-56.6 1.4s-14.6 41.3 1.4 56.6L124.8 448c43.1 41.1 100.4 64 160 64H304c97.2 0 176-78.8 176-176V128c0-17.7-14.3-32-32-32s-32 14.3-32 32V240c0 8.8-7.2 16-16 16s-16-7.2-16-16V64c0-17.7-14.3-32-32-32s-32 14.3-32 32V240c0 8.8-7.2 16-16 16s-16-7.2-16-16V32z"></path>
  </symbol>

  <symbol id="menu" viewBox="0 0 448 512">
    <path d="M0 96C0 78.3 14.3 64 32 64H416c17.7 0 32 14.3 32 32s-14.3 32-32 32H32C14.3 128 0 113.7 0 96zM0 256c0-17.7 14.3-32 32-32H416c17.7 0 32 14.3 32 32s-14.3 32-32 32H32c-17.7 0-32-14.3-32-32zM448 416c0 17.7-14.3 32-32 32H32c-17.7 0-32-14.3-32-32s14.3-32 32-32H416c17.7 0 32 14.3 32 32z"></path>
  </symbol>

  <symbol id="close" viewBox="0 0 320 512">
    <path d="M310.6 150.6c12.5-12.5 12.5-32.8 0-45.3s-32.8-12.5-45.3 0L160 210.7 54.6 105.4c-12.5-12.5-32.8-12.5-45.3 0s-12.5 32.8 0 45.3L114.7 256 9.4 361.4c-12.5 12.5-12.5 32.8 0 45.3s32.8 12.5 45.3 0L160 301.3 265.4 406.6c12.5 12.5 32.8 12.5 45.3 0s12.5-32.8 0-45.3L205.3 256 310.6 150.6z"></path>
  </symbol>

  <symbol id="search" viewBox="0 0 512 512">
    <path d="M416 208c0 45.9-14.9 88.3-40 122.7L502.6 457.4c12.5 12.5 12.5 32.8 0 45.3s-32.8 12.5-45.3 0L330.7 376c-34.4 25.2-76.8 40-122.7 40C93.1 416 0 322.9 0 208S93.1 0 208 0S416 93.1 416 208zM208 352c79.5 0 144-64.5 144-144s-64.5-144-144-144S64 128.5 64 208s64.5 144 144 144z"></path>
  </symbol>

  <symbol id="bookmark" viewBox="0 0 384 512">
    <path d="M0 48V487.7C0 501.1 10.9 512 24.3 512c5 0 9.9-1.5 14-4.4L192 400 345.7 507.6c4.1 2.9 9 4.4 14 4.4c13.4 0 24.3-10.9 24.3-24.3V48c0-26.5-21.5-48-48-48H48C21.5 0 0 21.5 0 48z"></path>
  </symbol>

  <symbol id="empty-heart" viewBox="0 0 512 512">
    <path d="M244 84L255.1 96L267.1 84.02C300.6 51.37 347 36.51 392.6 44.1C461.5 55.58 512 115.2 512 185.1V190.9C512 232.4 494.8 272.1 464.4 300.4L283.7 469.1C276.2 476.1 266.3 480 256 480C245.7 480 235.8 476.1 228.3 469.1L47.59 300.4C17.23 272.1 0 232.4 0 190.9V185.1C0 115.2 50.52 55.58 119.4 44.1C164.1 36.51 211.4 51.37 244 84C243.1 84 244 84.01 244 84L244 84zM255.1 163.9L210.1 117.1C188.4 96.28 157.6 86.4 127.3 91.44C81.55 99.07 48 138.7 48 185.1V190.9C48 219.1 59.71 246.1 80.34 265.3L256 429.3L431.7 265.3C452.3 246.1 464 219.1 464 190.9V185.1C464 138.7 430.4 99.07 384.7 91.44C354.4 86.4 323.6 96.28 301.9 117.1L255.1 163.9z"></path>
  </symbol>

  <symbol id="solid-heart" viewBox="0 0 512 512">
    <path d="M47.6 300.4L228.3 469.1c7.5 7 17.4 10.9 27.7 10.9s20.2-3.9 27.7-10.9L464.4 300.4c30.4-28.3 47.6-68 47.6-109.5v-5.8c0-69.9-50.5-129.5-119.4-141C347 36.5 300.6 51.4 268 84L256 96 244 84c-32.6-32.6-79-47.5-124.6-39.9C50.5 55.6 0 115.2 0 185.1v5.8c0 41.5 17.2 81.2 47.6 109.5z"></path>
  </symbol>

  <symbol id="comments" viewBox="0 0 640 512">
    <path d="M208 0C322.9 0 416 78.8 416 176C416 273.2 322.9 352 208 352C189.3 352 171.2 349.7 153.9 345.8C123.3 364.8 79.13 384 24.95 384C14.97 384 5.93 378.1 2.018 368.9C-1.896 359.7-.0074 349.1 6.739 341.9C7.26 341.5 29.38 317.4 45.73 285.9C17.18 255.8 0 217.6 0 176C0 78.8 93.13 0 208 0zM164.6 298.1C179.2 302.3 193.8 304 208 304C296.2 304 368 246.6 368 176C368 105.4 296.2 48 208 48C119.8 48 48 105.4 48 176C48 211.2 65.71 237.2 80.57 252.9L104.1 277.8L88.31 308.1C84.74 314.1 80.73 321.9 76.55 328.5C94.26 323.4 111.7 315.5 128.7 304.1L145.4 294.6L164.6 298.1zM441.6 128.2C552 132.4 640 209.5 640 304C640 345.6 622.8 383.8 594.3 413.9C610.6 445.4 632.7 469.5 633.3 469.9C640 477.1 641.9 487.7 637.1 496.9C634.1 506.1 625 512 615 512C560.9 512 516.7 492.8 486.1 473.8C468.8 477.7 450.7 480 432 480C350 480 279.1 439.8 245.2 381.5C262.5 379.2 279.1 375.3 294.9 369.9C322.9 407.1 373.9 432 432 432C446.2 432 460.8 430.3 475.4 426.1L494.6 422.6L511.3 432.1C528.3 443.5 545.7 451.4 563.5 456.5C559.3 449.9 555.3 442.1 551.7 436.1L535.9 405.8L559.4 380.9C574.3 365.3 592 339.2 592 304C592 237.7 528.7 183.1 447.1 176.6L448 176C448 159.5 445.8 143.5 441.6 128.2H441.6z"></path>
  </symbol>

  <symbol id="spinner" viewBox="0 0 512 512">
    <path d="M304 48c0-26.5-21.5-48-48-48s-48 21.5-48 48s21.5 48 48 48s48-21.5 48-48zm0 416c0-26.5-21.5-48-48-48s-48 21.5-48 48s21.5 48 48 48s48-21.5 48-48zM48 304c26.5 0 48-21.5 48-48s-21.5-48-48-48s-48 21.5-48 48s21.5 48 48 48zm464-48c0-26.5-21.5-48-48-48s-48 21.5-48 48s21.5 48 48 48s48-21.5 48-48zM142.9 437c18.7-18.7 18.7-49.1 0-67.9s-49.1-18.7-67.9 0s-18.7 49.1 0 67.9s49.1 18.7 67.9 0zm0-294.2c18.7-18.7 18.7-49.1 0-67.9S93.7 56.2 75 75s-18.7 49.1 0 67.9s49.1 18.7 67.9 0zM369.1 437c18.7 18.7 49.1 18.7 67.9 0s18.7-49.1 0-67.9s-49.1-18.7-67.9 0s-18.7 49.1 0 67.9z"></path>
  </symbol>

  <symbol id="external-link" viewBox="0 0 512 512">
    <path d="M352 0c-12.9 0-24.6 7.8-29.6 19.8s-2.2 25.7 6.9 34.9L370.7 96 201.4 265.4c-12.5 12.5-12.5 32.8 0 45.3s32.8 12.5 45.3 0L416 141.3l41.4 41.4c9.2 9.2 22.9 11.9 34.9 6.9s19.8-16.6 19.8-29.6V32c0-17.7-14.3-32-32-32H352zM80 32C35.8 32 0 67.8 0 112V432c0 44.2 35.8 80 80 80H400c44.2 0 80-35.8 80-80V320c0-17.7-14.3-32-32-32s-32 14.3-32 32V432c0 8.8-7.2 16-16 16H80c-8.8 0-16-7.2-16-16V112c0-8.8 7.2-16 16-16H192c17.7 0 32-14.3 32-32s-14.3-32-32-32H80z"></path>
  </symbol>

  <symbol id="checkmark" viewBox="0 0 512 512">
    <path d="M256 512c141.4 0 256-114.6 256-256S397.4 0 256 0S0 114.6 0 256S114.6 512 256 512zM369 209L241 337c-9.4 9.4-24.6 9.4-33.9 0l-64-64c-9.4-9.4-9.4-24.6 0-33.9s24.6-9.4 33.9 0l47 47L335 175c9.4-9.4 24.6-9.4 33.9 0s9.4 24.6 0 33.9z"></path>
  </symbol>

  <symbol id="exclamation" viewBox="0 0 512 512">
    <path d="M256 32c14.2 0 27.3 7.5 34.5 19.8l216 368c7.3 12.4 7.3 27.7 .2 40.1S486.3 480 472 480H40c-14.3 0-27.6-7.7-34.7-20.1s-7-27.8 .2-40.1l216-368C228.7 39.5 241.8 32 256 32zm0 128c-13.3 0-24 10.7-24 24V296c0 13.3 10.7 24 24 24s24-10.7 24-24V184c0-13.3-10.7-24-24-24zm32 224c0-17.7-14.3-32-32-32s-32 14.3-32 32s14.3 32 32 32s32-14.3 32-32z"></path>
  </symbol>

  <symbol id="meh" viewBox="0 0 512 512">
    <path d="M144.4 208C144.4 190.3 158.7 176 176.4 176C194 176 208.4 190.3 208.4 208C208.4 225.7 194 240 176.4 240C158.7 240 144.4 225.7 144.4 208zM368.4 208C368.4 225.7 354 240 336.4 240C318.7 240 304.4 225.7 304.4 208C304.4 190.3 318.7 176 336.4 176C354 176 368.4 190.3 368.4 208zM328 328C341.3 328 352 338.7 352 352C352 365.3 341.3 376 328 376H184C170.7 376 160 365.3 160 352C160 338.7 170.7 328 184 328H328zM512 256C512 397.4 397.4 512 256 512C114.6 512 0 397.4 0 256C0 114.6 114.6 0 256 0C397.4 0 512 114.6 512 256zM256 464C370.9 464 464 370.9 464 256C464 141.1 370.9 48 256 48C141.1 48 48 141.1 48 256C48 370.9 141.1 464 256 464z"></path>
  </symbol>

  <symbol id="message" viewBox="0 0 512 512">
    <path d="M48 64C21.5 64 0 85.5 0 112c0 15.1 7.1 29.3 19.2 38.4L236.8 313.6c11.4 8.5 27 8.5 38.4 0L492.8 150.4c12.1-9.1 19.2-23.3 19.2-38.4c0-26.5-21.5-48-48-48H48zM0 176V384c0 35.3 28.7 64 64 64H448c35.3 0 64-28.7 64-64V176L294.4 339.2c-22.8 17.1-54 17.1-76.8 0L0 176z"></path>
  </symbol>

  <symbol id="medal" viewBox="0 0 512 512">
    <path d="M16 0H144c5.3 0 10.3 2.7 13.3 7.1l81.1 121.6c-49.5 4.1-94 25.6-127.6 58.3L2.7 24.9C-.6 20-.9 13.7 1.9 8.5S10.1 0 16 0zM509.3 24.9L401.2 187.1c-33.5-32.7-78.1-54.2-127.6-58.3L354.7 7.1c3-4.5 8-7.1 13.3-7.1H496c5.9 0 11.3 3.2 14.1 8.5s2.5 11.5-.8 16.4zM432 336c0 97.2-78.8 176-176 176s-176-78.8-176-176s78.8-176 176-176s176 78.8 176 176zM264.4 241.1c-3.4-7-13.3-7-16.8 0l-22.4 45.4c-1.4 2.8-4 4.7-7 5.1L168 298.9c-7.7 1.1-10.7 10.5-5.2 16l36.3 35.4c2.2 2.2 3.2 5.2 2.7 8.3l-8.6 49.9c-1.3 7.6 6.7 13.5 13.6 9.9l44.8-23.6c2.7-1.4 6-1.4 8.7 0l44.8 23.6c6.9 3.6 14.9-2.2 13.6-9.9l-8.6-49.9c-.5-3 .5-6.1 2.7-8.3l36.3-35.4c5.6-5.4 2.5-14.8-5.2-16l-50.1-7.3c-3-.4-5.7-2.4-7-5.1l-22.4-45.4z"></path>
  </symbol>

  <symbol id="avatar" viewBox="0 0 512 512">
    <path d="M399 384.2C376.9 345.8 335.4 320 288 320H224c-47.4 0-88.9 25.8-111 64.2c35.2 39.2 86.2 63.8 143 63.8s107.8-24.7 143-63.8zM512 256c0 141.4-114.6 256-256 256S0 397.4 0 256S114.6 0 256 0S512 114.6 512 256zM256 272c39.8 0 72-32.2 72-72s-32.2-72-72-72s-72 32.2-72 72s32.2 72 72 72z"></path>
  </symbol>

  <symbol id="negative" viewBox="0 0 512 512">
    <path d="M256 512c141.4 0 256-114.6 256-256S397.4 0 256 0S0 114.6 0 256S114.6 512 256 512zM175 175c9.4-9.4 24.6-9.4 33.9 0l47 47 47-47c9.4-9.4 24.6-9.4 33.9 0s9.4 24.6 0 33.9l-47 47 47 47c9.4 9.4 9.4 24.6 0 33.9s-24.6 9.4-33.9 0l-47-47-47 47c-9.4 9.4-24.6 9.4-33.9 0s-9.4-24.6 0-33.9l47-47-47-47c-9.4-9.4-9.4-24.6 0-33.9z"></path>
  </symbol>

  <symbol id="gift" viewBox="0 0 512 512">
    <path d="M190.5 68.8L225.3 128H224 152c-22.1 0-40-17.9-40-40s17.9-40 40-40h2.2c14.9 0 28.8 7.9 36.3 20.8zM64 88c0 14.4 3.5 28 9.6 40H32c-17.7 0-32 14.3-32 32v64c0 17.7 14.3 32 32 32H480c17.7 0 32-14.3 32-32V160c0-17.7-14.3-32-32-32H438.4c6.1-12 9.6-25.6 9.6-40c0-48.6-39.4-88-88-88h-2.2c-31.9 0-61.5 16.9-77.7 44.4L256 85.5l-24.1-41C215.7 16.9 186.1 0 154.2 0H152C103.4 0 64 39.4 64 88zm336 0c0 22.1-17.9 40-40 40H288h-1.3l34.8-59.2C329.1 55.9 342.9 48 357.8 48H360c22.1 0 40 17.9 40 40zM32 288V464c0 26.5 21.5 48 48 48H224V288H32zM288 512H432c26.5 0 48-21.5 48-48V288H288V512z"></path>
  </symbol>

  <symbol id="feedback" viewBox="0 0 576 512">
    <path d="M64 0C28.7 0 0 28.7 0 64V448c0 35.3 28.7 64 64 64H320c35.3 0 64-28.7 64-64V428.7c-2.7 1.1-5.4 2-8.2 2.7l-60.1 15c-3 .7-6 1.2-9 1.4c-.9 .1-1.8 .2-2.7 .2H240c-6.1 0-11.6-3.4-14.3-8.8l-8.8-17.7c-1.7-3.4-5.1-5.5-8.8-5.5s-7.2 2.1-8.8 5.5l-8.8 17.7c-2.9 5.9-9.2 9.4-15.7 8.8s-12.1-5.1-13.9-11.3L144 381l-9.8 32.8c-6.1 20.3-24.8 34.2-46 34.2H80c-8.8 0-16-7.2-16-16s7.2-16 16-16h8.2c7.1 0 13.3-4.6 15.3-11.4l14.9-49.5c3.4-11.3 13.8-19.1 25.6-19.1s22.2 7.8 25.6 19.1l11.6 38.6c7.4-6.2 16.8-9.7 26.8-9.7c15.9 0 30.4 9 37.5 23.2l4.4 8.8h8.9c-3.1-8.8-3.7-18.4-1.4-27.8l15-60.1c2.8-11.3 8.6-21.5 16.8-29.7L384 203.6V160H256c-17.7 0-32-14.3-32-32V0H64zM256 0V128H384L256 0zM549.8 139.7c-15.6-15.6-40.9-15.6-56.6 0l-29.4 29.4 71 71 29.4-29.4c15.6-15.6 15.6-40.9 0-56.6l-14.4-14.4zM311.9 321c-4.1 4.1-7 9.2-8.4 14.9l-15 60.1c-1.4 5.5 .2 11.2 4.2 15.2s9.7 5.6 15.2 4.2l60.1-15c5.6-1.4 10.8-4.3 14.9-8.4L512.1 262.7l-71-71L311.9 321z"></path>
  </symbol>

  <symbol id="promotion" viewBox="0 0 640 512">
    <path d="M352 128c0 70.7-57.3 128-128 128s-128-57.3-128-128S153.3 0 224 0s128 57.3 128 128zM0 482.3C0 383.8 79.8 304 178.3 304h91.4C368.2 304 448 383.8 448 482.3c0 16.4-13.3 29.7-29.7 29.7H29.7C13.3 512 0 498.7 0 482.3zM504 312V248H440c-13.3 0-24-10.7-24-24s10.7-24 24-24h64V136c0-13.3 10.7-24 24-24s24 10.7 24 24v64h64c13.3 0 24 10.7 24 24s-10.7 24-24 24H552v64c0 13.3-10.7 24-24 24s-24-10.7-24-24z"></path>
  </symbol>

  <symbol id="ban" viewBox="0 0 640 512">
    <path d="M38.8 5.1C28.4-3.1 13.3-1.2 5.1 9.2S-1.2 34.7 9.2 42.9l592 464c10.4 8.2 25.5 6.3 33.7-4.1s6.3-25.5-4.1-33.7L353.3 251.6C407.9 237 448 187.2 448 128C448 57.3 390.7 0 320 0C250.2 0 193.5 55.8 192 125.2L38.8 5.1zM264.3 304.3C170.5 309.4 96 387.2 96 482.3c0 16.4 13.3 29.7 29.7 29.7H514.3c3.9 0 7.6-.7 11-2.1l-261-205.6z"></path>
  </symbol>

  <symbol id="chevron-left" viewBox="0 0 384 512">
    <path d="M41.4 233.4c-12.5 12.5-12.5 32.8 0 45.3l192 192c12.5 12.5 32.8 12.5 45.3 0s12.5-32.8 0-45.3L109.3 256 278.6 86.6c12.5-12.5 12.5-32.8 0-45.3s-32.8-12.5-45.3 0l-192 192z"></path>
  </symbol>

  <symbol id="chevron-right" viewBox="0 0 384 512">
    <path d="M342.6 233.4c12.5 12.5 12.5 32.8 0 45.3l-192 192c-12.5 12.5-32.8 12.5-45.3 0s-12.5-32.8 0-45.3L274.7 256 105.4 86.6c-12.5-12.5-12.5-32.8 0-45.3s32.8-12.5 45.3 0l192 192z"></path>
  </symbol>

  <symbol id="chevron-down" viewBox="0 0 448 512">
    <path d="M201.4 406.6c12.5 12.5 32.8 12.5 45.3 0l192-192c12.5-12.5 12.5-32.8 0-45.3s-32.8-12.5-45.3 0L224 338.7 54.6 169.4c-12.5-12.5-32.8-12.5-45.3 0s-12.5 32.8 0 45.3l192 192z"/>
  </symbol>

  <symbol id="ellipsis" viewBox="0 0 448 512">
    <path d="M120 256c0 30.9-25.1 56-56 56s-56-25.1-56-56s25.1-56 56-56s56 25.1 56 56zm160 0c0 30.9-25.1 56-56 56s-56-25.1-56-56s25.1-56 56-56s56 25.1 56 56zm104 56c-30.9 0-56-25.1-56-56s25.1-56 56-56s56 25.1 56 56s-25.1 56-56 56z"></path>
  </symbol>

  <symbol id="edit" viewBox="0 0 512 512">
    <path d="M471.6 21.7c-21.9-21.9-57.3-21.9-79.2 0L362.3 51.7l97.9 97.9 30.1-30.1c21.9-21.9 21.9-57.3 0-79.2L471.6 21.7zm-299.2 220c-6.1 6.1-10.8 13.6-13.5 21.9l-29.6 88.8c-2.9 8.6-.6 18.1 5.8 24.6s15.9 8.7 24.6 5.8l88.8-29.6c8.2-2.8 15.7-7.4 21.9-13.5L437.7 172.3 339.7 74.3 172.4 241.7zM96 64C43 64 0 107 0 160V416c0 53 43 96 96 96H352c53 0 96-43 96-96V320c0-17.7-14.3-32-32-32s-32 14.3-32 32v96c0 17.7-14.3 32-32 32H96c-17.7 0-32-14.3-32-32V160c0-17.7 14.3-32 32-32h96c17.7 0 32-14.3 32-32s-14.3-32-32-32H96z"></path>
  </symbol>

  <symbol id="flag" viewBox="0 0 448 512">
    <path d="M64 32C64 14.3 49.7 0 32 0S0 14.3 0 32V64 368 480c0 17.7 14.3 32 32 32s32-14.3 32-32V352l64.3-16.1c41.1-10.3 84.6-5.5 122.5 13.4c44.2 22.1 95.5 24.8 141.7 7.4l34.7-13c12.5-4.7 20.8-16.6 20.8-30V66.1c0-23-24.2-38-44.8-27.7l-9.6 4.8c-46.3 23.2-100.8 23.2-147.1 0c-35.1-17.6-75.4-22-113.5-12.5L64 48V32z"></path>
  </symbol>

  <symbol id="link" viewBox="0 0 640 512">
    <path d="M579.8 267.7c56.5-56.5 56.5-148 0-204.5c-50-50-128.8-56.5-186.3-15.4l-1.6 1.1c-14.4 10.3-17.7 30.3-7.4 44.6s30.3 17.7 44.6 7.4l1.6-1.1c32.1-22.9 76-19.3 103.8 8.6c31.5 31.5 31.5 82.5 0 114L422.3 334.8c-31.5 31.5-82.5 31.5-114 0c-27.9-27.9-31.5-71.8-8.6-103.8l1.1-1.6c10.3-14.4 6.9-34.4-7.4-44.6s-34.4-6.9-44.6 7.4l-1.1 1.6C206.5 251.2 213 330 263 380c56.5 56.5 148 56.5 204.5 0L579.8 267.7zM60.2 244.3c-56.5 56.5-56.5 148 0 204.5c50 50 128.8 56.5 186.3 15.4l1.6-1.1c14.4-10.3 17.7-30.3 7.4-44.6s-30.3-17.7-44.6-7.4l-1.6 1.1c-32.1 22.9-76 19.3-103.8-8.6C74 372 74 321 105.5 289.5L217.7 177.2c31.5-31.5 82.5-31.5 114 0c27.9 27.9 31.5 71.8 8.6 103.9l-1.1 1.6c-10.3 14.4-6.9 34.4 7.4 44.6s34.4 6.9 44.6-7.4l1.1-1.6C433.5 260.8 427 182 377 132c-56.5-56.5-148-56.5-204.5 0L60.2 244.3z"></path>
  </symbol>

  <symbol id="plus" viewBox="0 0 448 512">
    <path d="M256 80c0-17.7-14.3-32-32-32s-32 14.3-32 32V224H48c-17.7 0-32 14.3-32 32s14.3 32 32 32H192V432c0 17.7 14.3 32 32 32s32-14.3 32-32V288H400c17.7 0 32-14.3 32-32s-14.3-32-32-32H256V80z"></path>
  </symbol>

  <symbol id="caret-down" viewBox="0 0 320 512">
    <path d="M137.4 374.6c12.5 12.5 32.8 12.5 45.3 0l128-128c9.2-9.2 11.9-22.9 6.9-34.9s-16.6-19.8-29.6-19.8L32 192c-12.9 0-24.6 7.8-29.6 19.8s-2.2 25.7 6.9 34.9l128 128z"></path>
  </symbol>

  <symbol id="volume-high" viewBox="0 0 640 512">
    <path d="M533.6 32.5C598.5 85.3 640 165.8 640 256s-41.5 170.8-106.4 223.5c-10.3 8.4-25.4 6.8-33.8-3.5s-6.8-25.4 3.5-33.8C557.5 398.2 592 331.2 592 256s-34.5-142.2-88.7-186.3c-10.3-8.4-11.8-23.5-3.5-33.8s23.5-11.8 33.8-3.5zM473.1 107c43.2 35.2 70.9 88.9 70.9 149s-27.7 113.8-70.9 149c-10.3 8.4-25.4 6.8-33.8-3.5s-6.8-25.4 3.5-33.8C475.3 341.3 496 301.1 496 256s-20.7-85.3-53.2-111.8c-10.3-8.4-11.8-23.5-3.5-33.8s23.5-11.8 33.8-3.5zm-60.5 74.5C434.1 199.1 448 225.9 448 256s-13.9 56.9-35.4 74.5c-10.3 8.4-25.4 6.8-33.8-3.5s-6.8-25.4 3.5-33.8C393.1 284.4 400 271 400 256s-6.9-28.4-17.7-37.3c-10.3-8.4-11.8-23.5-3.5-33.8s23.5-11.8 33.8-3.5zM301.1 34.8C312.6 40 320 51.4 320 64V448c0 12.6-7.4 24-18.9 29.2s-25 3.1-34.4-5.3L131.8 352H64c-35.3 0-64-28.7-64-64V224c0-35.3 28.7-64 64-64h67.8L266.7 40.1c9.4-8.4 22.9-10.4 34.4-5.3z"></path>
  </symbol>

  <symbol id="volume-medium" viewBox="0 0 640 512">
    <path d="M473.1 107c43.2 35.2 70.9 88.9 70.9 149s-27.7 113.8-70.9 149c-10.3 8.4-25.4 6.8-33.8-3.5s-6.8-25.4 3.5-33.8C475.3 341.3 496 301.1 496 256s-20.7-85.3-53.2-111.8c-10.3-8.4-11.8-23.5-3.5-33.8s23.5-11.8 33.8-3.5zm-60.5 74.5C434.1 199.1 448 225.9 448 256s-13.9 56.9-35.4 74.5c-10.3 8.4-25.4 6.8-33.8-3.5s-6.8-25.4 3.5-33.8C393.1 284.4 400 271 400 256s-6.9-28.4-17.7-37.3c-10.3-8.4-11.8-23.5-3.5-33.8s23.5-11.8 33.8-3.5zM301.1 34.8C312.6 40 320 51.4 320 64V448c0 12.6-7.4 24-18.9 29.2s-25 3.1-34.4-5.3L131.8 352H64c-35.3 0-64-28.7-64-64V224c0-35.3 28.7-64 64-64h67.8L266.7 40.1c9.4-8.4 22.9-10.4 34.4-5.3z"></path>
  </symbol>

  <symbol id="volume-low" viewBox="0 0 640 512">
    <path d="M412.6 181.5C434.1 199.1 448 225.9 448 256s-13.9 56.9-35.4 74.5c-10.3 8.4-25.4 6.8-33.8-3.5s-6.8-25.4 3.5-33.8C393.1 284.4 400 271 400 256s-6.9-28.4-17.7-37.3c-10.3-8.4-11.8-23.5-3.5-33.8s23.5-11.8 33.8-3.5zM301.1 34.8C312.6 40 320 51.4 320 64V448c0 12.6-7.4 24-18.9 29.2s-25 3.1-34.4-5.3L131.8 352H64c-35.3 0-64-28.7-64-64V224c0-35.3 28.7-64 64-64h67.8L266.7 40.1c9.4-8.4 22.9-10.4 34.4-5.3z"></path>
  </symbol>

  <symbol id="no-sound" viewBox="0 0 640 512">
    <path d="M301.1 34.8C312.6 40 320 51.4 320 64V448c0 12.6-7.4 24-18.9 29.2s-25 3.1-34.4-5.3L131.8 352H64c-35.3 0-64-28.7-64-64V224c0-35.3 28.7-64 64-64h67.8L266.7 40.1c9.4-8.4 22.9-10.4 34.4-5.3zM425 167l55 55 55-55c9.4-9.4 24.6-9.4 33.9 0s9.4 24.6 0 33.9l-55 55 55 55c9.4 9.4 9.4 24.6 0 33.9s-24.6 9.4-33.9 0l-55-55-55 55c-9.4 9.4-24.6 9.4-33.9 0s-9.4-24.6 0-33.9l55-55-55-55c-9.4-9.4-9.4-24.6 0-33.9s24.6-9.4 33.9 0z"/>
  </symbol>

  <symbol id="hashtag" viewBox="0 0 448 512">
    <path d="M181.3 32.4c17.4 2.9 29.2 19.4 26.3 36.8L197.8 128h95.1l11.5-69.3c2.9-17.4 19.4-29.2 36.8-26.3s29.2 19.4 26.3 36.8L357.8 128H416c17.7 0 32 14.3 32 32s-14.3 32-32 32H347.1L325.8 320H384c17.7 0 32 14.3 32 32s-14.3 32-32 32H315.1l-11.5 69.3c-2.9 17.4-19.4 29.2-36.8 26.3s-29.2-19.4-26.3-36.8l9.8-58.7H155.1l-11.5 69.3c-2.9 17.4-19.4 29.2-36.8 26.3s-29.2-19.4-26.3-36.8L90.2 384H32c-17.7 0-32-14.3-32-32s14.3-32 32-32h68.9l21.3-128H64c-17.7 0-32-14.3-32-32s14.3-32 32-32h68.9l11.5-69.3c2.9-17.4 19.4-29.2 36.8-26.3zM187.1 192L165.8 320h95.1l21.3-128H187.1z"></path>
  </symbol>

  <symbol id="grid" viewBox="0 0 512 512">
    <path d="M64 32C28.7 32 0 60.7 0 96V416c0 35.3 28.7 64 64 64H448c35.3 0 64-28.7 64-64V96c0-35.3-28.7-64-64-64H64zm88 64v64H64V96h88zm56 0h88v64H208V96zm240 0v64H360V96h88zM64 224h88v64H64V224zm232 0v64H208V224h88zm64 0h88v64H360V224zM152 352v64H64V352h88zm56 0h88v64H208V352zm240 0v64H360V352h88z"></path>
  </symbol>

  <symbol id="list" viewBox="0 0 512 512">
    <path d="M40 48C26.7 48 16 58.7 16 72v48c0 13.3 10.7 24 24 24H88c13.3 0 24-10.7 24-24V72c0-13.3-10.7-24-24-24H40zM192 64c-17.7 0-32 14.3-32 32s14.3 32 32 32H480c17.7 0 32-14.3 32-32s-14.3-32-32-32H192zm0 160c-17.7 0-32 14.3-32 32s14.3 32 32 32H480c17.7 0 32-14.3 32-32s-14.3-32-32-32H192zm0 160c-17.7 0-32 14.3-32 32s14.3 32 32 32H480c17.7 0 32-14.3 32-32s-14.3-32-32-32H192zM16 232v48c0 13.3 10.7 24 24 24H88c13.3 0 24-10.7 24-24V232c0-13.3-10.7-24-24-24H40c-13.3 0-24 10.7-24 24zM40 368c-13.3 0-24 10.7-24 24v48c0 13.3 10.7 24 24 24H88c13.3 0 24-10.7 24-24V392c0-13.3-10.7-24-24-24H40z"></path>
  </symbol>

  <symbol id="table" viewBox="0 0 512 512">
    <path d="M0 96C0 60.7 28.7 32 64 32H448c35.3 0 64 28.7 64 64V416c0 35.3-28.7 64-64 64H64c-35.3 0-64-28.7-64-64V96zm64 0v64h64V96H64zm384 0H192v64H448V96zM64 224v64h64V224H64zm384 0H192v64H448V224zM64 352v64h64V352H64zm384 0H192v64H448V352z"></path>
  </symbol>

  <symbol id="download" viewBox="0 0 512 512">
    <path d="M288 32c0-17.7-14.3-32-32-32s-32 14.3-32 32V274.7l-73.4-73.4c-12.5-12.5-32.8-12.5-45.3 0s-12.5 32.8 0 45.3l128 128c12.5 12.5 32.8 12.5 45.3 0l128-128c12.5-12.5 12.5-32.8 0-45.3s-32.8-12.5-45.3 0L288 274.7V32zM64 352c-35.3 0-64 28.7-64 64v32c0 35.3 28.7 64 64 64H448c35.3 0 64-28.7 64-64V416c0-35.3-28.7-64-64-64H346.5l-45.3 45.3c-25 25-65.5 25-90.5 0L165.5 352H64zM432 456c-13.3 0-24-10.7-24-24s10.7-24 24-24s24 10.7 24 24s-10.7 24-24 24z"></path>
  </symbol>

  <symbol id="print" viewBox="0 0 512 512">
    <path d="M128 0C92.7 0 64 28.7 64 64v96h64V64H354.7L384 93.3V160h64V93.3c0-17-6.7-33.3-18.7-45.3L400 18.7C388 6.7 371.7 0 354.7 0H128zM384 352v32 64H128V384 368 352H384zm64 32h32c17.7 0 32-14.3 32-32V256c0-35.3-28.7-64-64-64H64c-35.3 0-64 28.7-64 64v96c0 17.7 14.3 32 32 32H64v64c0 35.3 28.7 64 64 64H384c35.3 0 64-28.7 64-64V384zM432 248a24 24 0 1 1 0 48 24 24 0 1 1 0-48z"></path>
  </symbol>

  <symbol id="copy" viewBox="0 0 448 512">
    <path d="M384 336H192c-8.8 0-16-7.2-16-16V64c0-8.8 7.2-16 16-16l140.1 0L400 115.9V320c0 8.8-7.2 16-16 16zM192 384H384c35.3 0 64-28.7 64-64V115.9c0-12.7-5.1-24.9-14.1-33.9L366.1 14.1c-9-9-21.2-14.1-33.9-14.1H192c-35.3 0-64 28.7-64 64V320c0 35.3 28.7 64 64 64zM64 128c-35.3 0-64 28.7-64 64V448c0 35.3 28.7 64 64 64H256c35.3 0 64-28.7 64-64V416H272v32c0 8.8-7.2 16-16 16H64c-8.8 0-16-7.2-16-16V192c0-8.8 7.2-16 16-16H96V128H64z"></path>
  </symbol>

  <symbol id="image" viewBox="0 0 512 512">
    <path d="M152 120c-26.51 0-48 21.49-48 48s21.49 48 48 48s48-21.49 48-48S178.5 120 152 120zM447.1 32h-384C28.65 32-.0091 60.65-.0091 96v320c0 35.35 28.65 64 63.1 64h384c35.35 0 64-28.65 64-64V96C511.1 60.65 483.3 32 447.1 32zM463.1 409.3l-136.8-185.9C323.8 218.8 318.1 216 312 216c-6.113 0-11.82 2.768-15.21 7.379l-106.6 144.1l-37.09-46.1c-3.441-4.279-8.934-6.809-14.77-6.809c-5.842 0-11.33 2.529-14.78 6.809l-75.52 93.81c0-.0293 0 .0293 0 0L47.99 96c0-8.822 7.178-16 16-16h384c8.822 0 16 7.178 16 16V409.3z"></path>
  </symbol>

  <symbol id="multiple-images" viewBox="0 0 576 512">
    <path d="M512 32H160c-35.35 0-64 28.65-64 64v224c0 35.35 28.65 64 64 64H512c35.35 0 64-28.65 64-64V96C576 60.65 547.3 32 512 32zM528 320c0 8.822-7.178 16-16 16h-16l-109.3-160.9C383.7 170.7 378.7 168 373.3 168c-5.352 0-10.35 2.672-13.31 7.125l-62.74 94.11L274.9 238.6C271.9 234.4 267.1 232 262 232c-5.109 0-9.914 2.441-12.93 6.574L176 336H160c-8.822 0-16-7.178-16-16V96c0-8.822 7.178-16 16-16H512c8.822 0 16 7.178 16 16V320zM224 112c-17.67 0-32 14.33-32 32s14.33 32 32 32c17.68 0 32-14.33 32-32S241.7 112 224 112zM456 480H120C53.83 480 0 426.2 0 360v-240C0 106.8 10.75 96 24 96S48 106.8 48 120v240c0 39.7 32.3 72 72 72h336c13.25 0 24 10.75 24 24S469.3 480 456 480z"></path>
  </symbol>

  <symbol id="globe" viewBox="0 0 512 512">
    <path d="M352 256c0 22.2-1.2 43.6-3.3 64H163.3c-2.2-20.4-3.3-41.8-3.3-64s1.2-43.6 3.3-64H348.7c2.2 20.4 3.3 41.8 3.3 64zm28.8-64H503.9c5.3 20.5 8.1 41.9 8.1 64s-2.8 43.5-8.1 64H380.8c2.1-20.6 3.2-42 3.2-64s-1.1-43.4-3.2-64zm112.6-32H376.7c-10-63.9-29.8-117.4-55.3-151.6c78.3 20.7 142 77.5 171.9 151.6zm-149.1 0H167.7c6.1-36.4 15.5-68.6 27-94.7c10.5-23.6 22.2-40.7 33.5-51.5C239.4 3.2 248.7 0 256 0s16.6 3.2 27.8 13.8c11.3 10.8 23 27.9 33.5 51.5c11.6 26 21 58.2 27 94.7zm-209 0H18.6C48.6 85.9 112.2 29.1 190.6 8.4C165.1 42.6 145.3 96.1 135.3 160zM8.1 192H131.2c-2.1 20.6-3.2 42-3.2 64s1.1 43.4 3.2 64H8.1C2.8 299.5 0 278.1 0 256s2.8-43.5 8.1-64zM194.7 446.6c-11.6-26-20.9-58.2-27-94.6H344.3c-6.1 36.4-15.5 68.6-27 94.6c-10.5 23.6-22.2 40.7-33.5 51.5C272.6 508.8 263.3 512 256 512s-16.6-3.2-27.8-13.8c-11.3-10.8-23-27.9-33.5-51.5zM135.3 352c10 63.9 29.8 117.4 55.3 151.6C112.2 482.9 48.6 426.1 18.6 352H135.3zm358.1 0c-30 74.1-93.6 130.9-171.9 151.6c25.5-34.2 45.2-87.7 55.3-151.6H493.4z"></path>
  </symbol>

  <symbol id="file-lines" viewBox="0 0 384 512">
    <path d="M64 464c-8.8 0-16-7.2-16-16V64c0-8.8 7.2-16 16-16H224v80c0 17.7 14.3 32 32 32h80V448c0 8.8-7.2 16-16 16H64zM64 0C28.7 0 0 28.7 0 64V448c0 35.3 28.7 64 64 64H320c35.3 0 64-28.7 64-64V154.5c0-17-6.7-33.3-18.7-45.3L274.7 18.7C262.7 6.7 246.5 0 229.5 0H64zm56 256c-13.3 0-24 10.7-24 24s10.7 24 24 24H264c13.3 0 24-10.7 24-24s-10.7-24-24-24H120zm0 96c-13.3 0-24 10.7-24 24s10.7 24 24 24H264c13.3 0 24-10.7 24-24s-10.7-24-24-24H120z"/>
  </symbol>

  <symbol id="file-pen" viewBox="0 0 576 512">
    <path d="M0 64C0 28.7 28.7 0 64 0H224V128c0 17.7 14.3 32 32 32H384V285.7l-86.8 86.8c-10.3 10.3-17.5 23.1-21 37.2l-18.7 74.9c-2.3 9.2-1.8 18.8 1.3 27.5H64c-35.3 0-64-28.7-64-64V64zm384 64H256V0L384 128zM549.8 235.7l14.4 14.4c15.6 15.6 15.6 40.9 0 56.6l-29.4 29.4-71-71 29.4-29.4c15.6-15.6 40.9-15.6 56.6 0zM311.9 417L441.1 287.8l71 71L382.9 487.9c-4.1 4.1-9.2 7-14.9 8.4l-60.1 15c-5.5 1.4-11.2-.2-15.2-4.2s-5.6-9.7-4.2-15.2l15-60.1c1.4-5.6 4.3-10.8 8.4-14.9z"/>
  </symbol>

  <symbol id="link-slash" viewBox="0 0 640 512">
    <path d="M38.8 5.1C28.4-3.1 13.3-1.2 5.1 9.2S-1.2 34.7 9.2 42.9l592 464c10.4 8.2 25.5 6.3 33.7-4.1s6.3-25.5-4.1-33.7L489.3 358.2l90.5-90.5c56.5-56.5 56.5-148 0-204.5c-50-50-128.8-56.5-186.3-15.4l-1.6 1.1c-14.4 10.3-17.7 30.3-7.4 44.6s30.3 17.7 44.6 7.4l1.6-1.1c32.1-22.9 76-19.3 103.8 8.6c31.5 31.5 31.5 82.5 0 114l-96 96-31.9-25C430.9 239.6 420.1 175.1 377 132c-52.2-52.3-134.5-56.2-191.3-11.7L38.8 5.1zM239 162c30.1-14.9 67.7-9.9 92.8 15.3c20 20 27.5 48.3 21.7 74.5L239 162zM406.6 416.4L220.9 270c-2.1 39.8 12.2 80.1 42.2 110c38.9 38.9 94.4 51 143.6 36.3zm-290-228.5L60.2 244.3c-56.5 56.5-56.5 148 0 204.5c50 50 128.8 56.5 186.3 15.4l1.6-1.1c14.4-10.3 17.7-30.3 7.4-44.6s-30.3-17.7-44.6-7.4l-1.6 1.1c-32.1 22.9-76 19.3-103.8-8.6C74 372 74 321 105.5 289.5l61.8-61.8-50.6-39.9z"/>
  </symbol>

  <symbol id="help" viewBox="0 0 512 512">
    <path d="M464 256A208 208 0 1 0 48 256a208 208 0 1 0 416 0zM0 256a256 256 0 1 1 512 0A256 256 0 1 1 0 256zm169.8-90.7c7.9-22.3 29.1-37.3 52.8-37.3h58.3c34.9 0 63.1 28.3 63.1 63.1c0 22.6-12.1 43.5-31.7 54.8L280 264.4c-.2 13-10.9 23.6-24 23.6c-13.3 0-24-10.7-24-24V250.5c0-8.6 4.6-16.5 12.1-20.8l44.3-25.4c4.7-2.7 7.6-7.7 7.6-13.1c0-8.4-6.8-15.1-15.1-15.1H222.6c-3.4 0-6.4 2.1-7.5 5.3l-.4 1.2c-4.4 12.5-18.2 19-30.6 14.6s-19-18.2-14.6-30.6l.4-1.2zM224 352a32 32 0 1 1 64 0 32 32 0 1 1 -64 0z"/>
  </symbol>

  <symbol id="info" viewBox="0 0 512 512">
    <path d="M256 512A256 256 0 1 0 256 0a256 256 0 1 0 0 512zM216 336h24V272H216c-13.3 0-24-10.7-24-24s10.7-24 24-24h48c13.3 0 24 10.7 24 24v88h8c13.3 0 24 10.7 24 24s-10.7 24-24 24H216c-13.3 0-24-10.7-24-24s10.7-24 24-24zm40-208a32 32 0 1 1 0 64 32 32 0 1 1 0-64z"/>
  </symbol>

  <symbol id="dock-top" viewBox="0 0 512 512">
    <path d="M426.666667 64H85.333333a21.333333 21.333333 0 0 0-21.333333 21.333333v341.333334a21.333333 21.333333 0 0 0 21.333333 21.333333h341.333334a21.333333 21.333333 0 0 0 21.333333-21.333333V85.333333a21.333333 21.333333 0 0 0-21.333333-21.333333z m-21.333334 341.333333H106.666667v-192h298.666666v192z m0-234.666667H106.666667V106.666667h298.666666v64z"/>
  </symbol>

  <symbol id="dock-right" viewBox="0 0 512 512">
    <path d="M426.666667 64H85.333333a21.333333 21.333333 0 0 0-21.333333 21.333333v341.333334a21.333333 21.333333 0 0 0 21.333333 21.333333h341.333334a21.333333 21.333333 0 0 0 21.333333-21.333333V85.333333a21.333333 21.333333 0 0 0-21.333333-21.333333z m-128 341.333334H106.666667V106.666667h192v298.666666z m106.666666 0h-64V106.666667h64v298.666666z"/>
  </symbol>

  <symbol id="dock-bottom" viewBox="0 0 512 512">
    <path d="M426.666667 64H85.333333a21.333333 21.333333 0 0 0-21.333333 21.333333v341.333334a21.333333 21.333333 0 0 0 21.333333 21.333333h341.333334a21.333333 21.333333 0 0 0 21.333333-21.333333V85.333333a21.333333 21.333333 0 0 0-21.333333-21.333333z m-21.333334 341.333334H106.666667v-64h298.666666v64z m0-106.666667H106.666667V106.666667h298.666666v192z"/>
  </symbol>

  <symbol id="dock-left" viewBox="0 0 512 512">
    <path d="M85.333333 448h341.333334a21.333333 21.333333 0 0 0 21.333333-21.333333V85.333333a21.333333 21.333333 0 0 0-21.333333-21.333333H85.333333a21.333333 21.333333 0 0 0-21.333333 21.333333v341.333334a21.333333 21.333333 0 0 0 21.333333 21.333333z m128-341.333333h192v298.666666h-192V106.666667zM106.666667 106.666667h64v298.666666h-64V106.666667z"/>
  </symbol>

  <symbol id="rotate" viewBox="0 0 512 512">
    <path d="M126.9 142.9c62.2-62.2 162.7-62.5 225.3-1L311 183c-6.9 6.9-8.9 17.2-5.2 26.2s12.5 14.8 22.2 14.8H447.5c0 0 0 0 0 0H456c13.3 0 24-10.7 24-24V72c0-9.7-5.8-18.5-14.8-22.2s-19.3-1.7-26.2 5.2L397.4 96.6c-87.6-86.5-228.7-86.2-315.8 1C57.2 122 39.6 150.7 28.8 181.4c-5.9 16.7 2.9 34.9 19.5 40.8s34.9-2.9 40.8-19.5c7.7-21.8 20.2-42.3 37.8-59.8zM0 312v7.6 .7V440c0 9.7 5.8 18.5 14.8 22.2s19.3 1.7 26.2-5.2l41.6-41.6c87.6 86.5 228.7 86.2 315.8-1c24.4-24.4 42.1-53.1 52.9-83.7c5.9-16.7-2.9-34.9-19.5-40.8s-34.9 2.9-40.8 19.5c-7.7 21.8-20.2 42.3-37.8 59.8c-62.2 62.2-162.7 62.5-225.3 1L169 329c6.9-6.9 8.9-17.2 5.2-26.2s-12.5-14.8-22.2-14.8H32.4h-.7H24c-13.3 0-24 10.7-24 24z"/>
  </symbol>

  <symbol id="rotate-right" viewBox="0 0 512 512">
    <path d="M447.5 224H456c13.3 0 24-10.7 24-24V72c0-9.7-5.8-18.5-14.8-22.2s-19.3-1.7-26.2 5.2L397.4 96.6c-87.6-86.5-228.7-86.2-315.8 1c-87.5 87.5-87.5 229.3 0 316.8s229.3 87.5 316.8 0c12.5-12.5 12.5-32.8 0-45.3s-32.8-12.5-45.3 0c-62.5 62.5-163.8 62.5-226.3 0s-62.5-163.8 0-226.3c62.2-62.2 162.7-62.5 225.3-1L311 183c-6.9 6.9-8.9 17.2-5.2 26.2s12.5 14.8 22.2 14.8H447.5z"/>
  </symbol>

  <symbol id="add-reaction" viewBox="0 0 512 512">
    <path fill-rule="evenodd" clip-rule="evenodd" d="M258.4555 42.6805C257.6384 42.6714 256.8192 42.6667 256 42.6667C138.176 42.6667 42.6667 138.176 42.6667 256C42.6667 373.8027 138.176 469.3333 256 469.3333C373.824 469.3333 469.3333 373.8027 469.3333 256C469.3333 255.1808 469.3291 254.3616 469.3184 253.5445C452.0149 259.7056 433.3781 263.0592 413.9584 263.0592C322.8224 263.0592 248.9408 189.1778 248.9408 98.0405C248.9408 78.621 252.2944 59.9851 258.4555 42.6805ZM168.9824 251.7824C168.9824 271.1616 153.2732 286.8715 133.8946 286.8715C114.5163 286.8715 98.807 271.1616 98.807 251.7824C98.807 232.4053 114.5163 216.6955 133.8946 216.6955C153.273 216.6955 168.9824 232.4053 168.9824 251.7824ZM224.4629 309.6981C221.5659 298.4384 210.0877 291.6608 198.8277 294.5579C187.5676 297.4571 180.7889 308.9344 183.687 320.1941C192.2551 353.4827 222.4491 378.1035 258.4469 378.1035C294.4448 378.1035 324.6379 353.4827 333.2075 320.1941C336.1045 308.9344 329.3269 297.4571 318.0651 294.5579C306.8053 291.6608 295.328 298.4384 292.4309 309.6981C288.5333 324.8363 274.7669 335.9979 258.4469 335.9979C242.1269 335.9979 228.3605 324.8363 224.4629 309.6981ZM394.6667 42.6667C382.8843 42.6667 373.3333 52.218 373.3333 64V96H341.3333C329.5509 96 320 105.5511 320 117.3333C320 129.1153 329.5509 138.6667 341.3333 138.6667H373.3333V170.6667C373.3333 182.4486 382.8843 192 394.6667 192C406.4491 192 416 182.4489 416 170.6667V138.6667H448C459.7824 138.6667 469.3333 129.1155 469.3333 117.3333C469.3333 105.5514 459.7824 96 448 96H416V64C416 52.218 406.4491 42.6667 394.6667 42.6667Z"/>
  </symbol>

  <symbol id="code" viewBox="0 0 640 512">
    <path d="M392.8 1.2c-17-4.9-34.7 5-39.6 22l-128 448c-4.9 17 5 34.7 22 39.6s34.7-5 39.6-22l128-448c4.9-17-5-34.7-22-39.6zm80.6 120.1c-12.5 12.5-12.5 32.8 0 45.3L562.7 256l-89.4 89.4c-12.5 12.5-12.5 32.8 0 45.3s32.8 12.5 45.3 0l112-112c12.5-12.5 12.5-32.8 0-45.3l-112-112c-12.5-12.5-32.8-12.5-45.3 0zm-306.7 0c-12.5-12.5-32.8-12.5-45.3 0l-112 112c-12.5 12.5-12.5 32.8 0 45.3l112 112c12.5 12.5 32.8 12.5 45.3 0s12.5-32.8 0-45.3L77.3 256l89.4-89.4c12.5-12.5 12.5-32.8 0-45.3z"/>
  </symbol>

  <symbol id="play" viewBox="0 0 384 512">
    <path d="M73 39c-14.8-9.1-33.4-9.4-48.5-.9S0 62.6 0 80L0 432c0 17.4 9.4 33.4 24.5 41.9s33.7 8.1 48.5-.9L361 297c14.3-8.7 23-24.2 23-41s-8.7-32.2-23-41L73 39z"/>
  </symbol>

  <symbol id="pause" viewBox="0 0 320 512">
    <path d="M48 64C21.5 64 0 85.5 0 112L0 400c0 26.5 21.5 48 48 48l32 0c26.5 0 48-21.5 48-48l0-288c0-26.5-21.5-48-48-48L48 64zm192 0c-26.5 0-48 21.5-48 48l0 288c0 26.5 21.5 48 48 48l32 0c26.5 0 48-21.5 48-48l0-288c0-26.5-21.5-48-48-48l-32 0z"/>
  </symbol>

  <symbol id="expand" viewBox="0 0 448 512">
    <path d="M32 32C14.3 32 0 46.3 0 64l0 96c0 17.7 14.3 32 32 32s32-14.3 32-32l0-64 64 0c17.7 0 32-14.3 32-32s-14.3-32-32-32L32 32zM64 352c0-17.7-14.3-32-32-32s-32 14.3-32 32l0 96c0 17.7 14.3 32 32 32l96 0c17.7 0 32-14.3 32-32s-14.3-32-32-32l-64 0 0-64zM320 32c-17.7 0-32 14.3-32 32s14.3 32 32 32l64 0 0 64c0 17.7 14.3 32 32 32s32-14.3 32-32l0-96c0-17.7-14.3-32-32-32l-96 0zM448 352c0-17.7-14.3-32-32-32s-32 14.3-32 32l0 64-64 0c-17.7 0-32 14.3-32 32s14.3 32 32 32l96 0c17.7 0 32-14.3 32-32l0-96z"/>
  </symbol>

  <symbol id="minimize" viewBox="0 0 512 512">
    <path d="M456 224l-144 0c-13.3 0-24-10.7-24-24l0-144c0-9.7 5.8-18.5 14.8-22.2s19.3-1.7 26.2 5.2l40 40L442.3 5.7C446 2 450.9 0 456 0s10 2 13.7 5.7l36.7 36.7C510 46 512 50.9 512 56s-2 10-5.7 13.7L433 143l40 40c6.9 6.9 8.9 17.2 5.2 26.2s-12.5 14.8-22.2 14.8zm0 64c9.7 0 18.5 5.8 22.2 14.8s1.7 19.3-5.2 26.2l-40 40 73.4 73.4c3.6 3.6 5.7 8.5 5.7 13.7s-2 10-5.7 13.7l-36.7 36.7C466 510 461.1 512 456 512s-10-2-13.7-5.7L369 433l-40 40c-6.9 6.9-17.2 8.9-26.2 5.2s-14.8-12.5-14.8-22.2l0-144c0-13.3 10.7-24 24-24l144 0zm-256 0c13.3 0 24 10.7 24 24l0 144c0 9.7-5.8 18.5-14.8 22.2s-19.3 1.7-26.2-5.2l-40-40L69.7 506.3C66 510 61.1 512 56 512s-10-2-13.7-5.7L5.7 469.7C2 466 0 461.1 0 456s2-10 5.7-13.7L79 369 39 329c-6.9-6.9-8.9-17.2-5.2-26.2s12.5-14.8 22.2-14.8l144 0zM56 224c-9.7 0-18.5-5.8-22.2-14.8s-1.7-19.3 5.2-26.2l40-40L5.7 69.7C2 66 0 61.1 0 56s2-10 5.7-13.7L42.3 5.7C46 2 50.9 0 56 0s10 2 13.7 5.7L143 79l40-40c6.9-6.9 17.2-8.9 26.2-5.2s14.8 12.5 14.8 22.2l0 144c0 13.3-10.7 24-24 24L56 224z"/>
  </symbol>

  <symbol id="gear" viewBox="0 0 512 512">
    <path d="M495.9 166.6c3.2 8.7 .5 18.4-6.4 24.6l-43.3 39.4c1.1 8.3 1.7 16.8 1.7 25.4s-.6 17.1-1.7 25.4l43.3 39.4c6.9 6.2 9.6 15.9 6.4 24.6c-4.4 11.9-9.7 23.3-15.8 34.3l-4.7 8.1c-6.6 11-14 21.4-22.1 31.2c-5.9 7.2-15.7 9.6-24.5 6.8l-55.7-17.7c-13.4 10.3-28.2 18.9-44 25.4l-12.5 57.1c-2 9.1-9 16.3-18.2 17.8c-13.8 2.3-28 3.5-42.5 3.5s-28.7-1.2-42.5-3.5c-9.2-1.5-16.2-8.7-18.2-17.8l-12.5-57.1c-15.8-6.5-30.6-15.1-44-25.4L83.1 425.9c-8.8 2.8-18.6 .3-24.5-6.8c-8.1-9.8-15.5-20.2-22.1-31.2l-4.7-8.1c-6.1-11-11.4-22.4-15.8-34.3c-3.2-8.7-.5-18.4 6.4-24.6l43.3-39.4C64.6 273.1 64 264.6 64 256s.6-17.1 1.7-25.4L22.4 191.2c-6.9-6.2-9.6-15.9-6.4-24.6c4.4-11.9 9.7-23.3 15.8-34.3l4.7-8.1c6.6-11 14-21.4 22.1-31.2c5.9-7.2 15.7-9.6 24.5-6.8l55.7 17.7c13.4-10.3 28.2-18.9 44-25.4l12.5-57.1c2-9.1 9-16.3 18.2-17.8C227.3 1.2 241.5 0 256 0s28.7 1.2 42.5 3.5c9.2 1.5 16.2 8.7 18.2 17.8l12.5 57.1c15.8 6.5 30.6 15.1 44 25.4l55.7-17.7c8.8-2.8 18.6-.3 24.5 6.8c8.1 9.8 15.5 20.2 22.1 31.2l4.7 8.1c6.1 11 11.4 22.4 15.8 34.3zM256 336a80 80 0 1 0 0-160 80 80 0 1 0 0 160z"/>
  </symbol>

  <symbol id="check" viewBox="0 0 448 512">
    <path d="M438.6 105.4c12.5 12.5 12.5 32.8 0 45.3l-256 256c-12.5 12.5-32.8 12.5-45.3 0l-128-128c-12.5-12.5-12.5-32.8 0-45.3s32.8-12.5 45.3 0L160 338.7 393.4 105.4c12.5-12.5 32.8-12.5 45.3 0z"/>
  </symbol>

  <symbol id="check-square" viewBox="0 0 448 512">
    <path d="M384 32c35.3 0 64 28.7 64 64l0 320c0 35.3-28.7 64-64 64L64 480c-35.3 0-64-28.7-64-64L0 96C0 60.7 28.7 32 64 32l320 0zM64 80c-8.8 0-16 7.2-16 16l0 320c0 8.8 7.2 16 16 16l320 0c8.8 0 16-7.2 16-16l0-320c0-8.8-7.2-16-16-16L64 80zm230.7 89.9c7.8-10.7 22.8-13.1 33.5-5.3 10.7 7.8 13.1 22.8 5.3 33.5L211.4 366.1c-4.1 5.7-10.5 9.3-17.5 9.8-7 .5-13.9-2-18.8-6.9l-55.9-55.9c-9.4-9.4-9.4-24.6 0-33.9s24.6-9.4 33.9 0l36 36 105.6-145.2z"/>
  </symbol>

  <symbol id="eye" viewBox="0 0 576 512">
    <path d="M288 32c-80.8 0-145.5 36.8-192.6 80.6C48.6 156 17.3 208 2.5 243.7c-3.3 7.9-3.3 16.7 0 24.6C17.3 304 48.6 356 95.4 399.4C142.5 443.2 207.2 480 288 480s145.5-36.8 192.6-80.6c46.8-43.5 78.1-95.4 93-131.1c3.3-7.9 3.3-16.7 0-24.6c-14.9-35.7-46.2-87.7-93-131.1C433.5 68.8 368.8 32 288 32zM144 256a144 144 0 1 1 288 0 144 144 0 1 1 -288 0zm144-64c0 35.3-28.7 64-64 64c-7.1 0-13.9-1.2-20.3-3.3c-5.5-1.8-11.9 1.6-11.7 7.4c.3 6.9 1.3 13.8 3.2 20.7c13.7 51.2 66.4 81.6 117.6 67.9s81.6-66.4 67.9-117.6c-11.1-41.5-47.8-69.4-88.6-71.1c-5.8-.2-9.2 6.1-7.4 11.7c2.1 6.4 3.3 13.2 3.3 20.3z"/>
  </symbol>

  <symbol id="bold" viewBox="0 0 384 512">
    <path d="M0 64C0 46.3 14.3 32 32 32l48 0 16 0 128 0c70.7 0 128 57.3 128 128c0 31.3-11.3 60.1-30 82.3c37.1 22.4 62 63.1 62 109.7c0 70.7-57.3 128-128 128L96 480l-16 0-48 0c-17.7 0-32-14.3-32-32s14.3-32 32-32l16 0 0-160L48 96 32 96C14.3 96 0 81.7 0 64zM224 224c35.3 0 64-28.7 64-64s-28.7-64-64-64L112 96l0 128 112 0zM112 288l0 128 144 0c35.3 0 64-28.7 64-64s-28.7-64-64-64l-32 0-112 0z"/>
  </symbol>

  <symbol id="italic" viewBox="0 0 384 512">
    <path d="M128 64c0-17.7 14.3-32 32-32l192 0c17.7 0 32 14.3 32 32s-14.3 32-32 32l-58.7 0L160 416l64 0c17.7 0 32 14.3 32 32s-14.3 32-32 32L32 480c-17.7 0-32-14.3-32-32s14.3-32 32-32l58.7 0L224 96l-64 0c-17.7 0-32-14.3-32-32z"/>
  </symbol>

  <symbol id="strikethrough" viewBox="0 0 512 512">
    <path d="M161.3 144c3.2-17.2 14-30.1 33.7-38.6c21.1-9 51.8-12.3 88.6-6.5c11.9 1.9 48.8 9.1 60.1 12c17.1 4.5 34.6-5.6 39.2-22.7s-5.6-34.6-22.7-39.2c-14.3-3.8-53.6-11.4-66.6-13.4c-44.7-7-88.3-4.2-123.7 10.9c-36.5 15.6-64.4 44.8-71.8 87.3c-.1 .6-.2 1.1-.2 1.7c-2.8 23.9 .5 45.6 10.1 64.6c4.5 9 10.2 16.9 16.7 23.9L32 224c-17.7 0-32 14.3-32 32s14.3 32 32 32l448 0c17.7 0 32-14.3 32-32s-14.3-32-32-32l-209.9 0-.4-.1-1.1-.3c-36-10.8-65.2-19.6-85.2-33.1c-9.3-6.3-15-12.6-18.2-19.1c-3.1-6.1-5.2-14.6-3.8-27.4zM348.9 337.2c2.7 6.5 4.4 15.8 1.9 30.1c-3 17.6-13.8 30.8-33.9 39.4c-21.1 9-51.7 12.3-88.5 6.5c-18-2.9-49.1-13.5-74.4-22.1c-5.6-1.9-11-3.7-15.9-5.4c-16.8-5.6-34.9 3.5-40.5 20.3s3.5 34.9 20.3 40.5c3.6 1.2 7.9 2.7 12.7 4.3c0 0 0 0 0 0s0 0 0 0c24.9 8.5 63.6 21.7 87.6 25.6c0 0 0 0 0 0l.2 0c44.7 7 88.3 4.2 123.7-10.9c36.5-15.6 64.4-44.8 71.8-87.3c3.6-21 2.7-40.4-3.1-58.1l-75.7 0c7 5.6 11.4 11.2 13.9 17.2z"/>
  </symbol>

  <symbol id="underline" viewBox="0 0 448 512">
    <path d="M16 64c0-17.7 14.3-32 32-32l96 0c17.7 0 32 14.3 32 32s-14.3 32-32 32l-16 0 0 128c0 53 43 96 96 96s96-43 96-96l0-128-16 0c-17.7 0-32-14.3-32-32s14.3-32 32-32l96 0c17.7 0 32 14.3 32 32s-14.3 32-32 32l-16 0 0 128c0 88.4-71.6 160-160 160s-160-71.6-160-160L64 96 48 96C30.3 96 16 81.7 16 64zM0 448c0-17.7 14.3-32 32-32l384 0c17.7 0 32 14.3 32 32s-14.3 32-32 32L32 480c-17.7 0-32-14.3-32-32z"/>
  </symbol>

  <symbol id="quote" viewBox="0 0 448 512">
    <path d="M0 216C0 149.7 53.7 96 120 96l8 0c17.7 0 32 14.3 32 32s-14.3 32-32 32l-8 0c-30.9 0-56 25.1-56 56l0 8 64 0c35.3 0 64 28.7 64 64l0 64c0 35.3-28.7 64-64 64l-64 0c-35.3 0-64-28.7-64-64l0-32 0-32 0-72zm256 0c0-66.3 53.7-120 120-120l8 0c17.7 0 32 14.3 32 32s-14.3 32-32 32l-8 0c-30.9 0-56 25.1-56 56l0 8 64 0c35.3 0 64 28.7 64 64l0 64c0 35.3-28.7 64-64 64l-64 0c-35.3 0-64-28.7-64-64l0-32 0-32 0-72z"/>
  </symbol>

  <symbol id="double-brackets" viewBox="0 0 512 512">
    <path d="M25.6 76.8v358.4h76.8v-51.2H76.8V128h25.6V76.8zm102.4 0v358.4h102.4v-51.2H179.2V128h51.2V76.8zm281.6 0v51.2h25.6v256h-25.6v51.2h76.8V76.8zm-128 0v51.2h51.2v256h-51.2v51.2h102.4V76.8z"/>
  </symbol>

  <symbol id="no-double-brackets" viewBox="0 0 512 512">
    <path d="M409.6 76.8v51.2h25.6v256l51.2 51.2V76.8zM230.4 128V76.8H128l51.2 51.2zM25.6 25.6 0 51.2l25.6 25.6v358.4h76.8v-51.2H76.8V128l51.2 51.2v256h102.4v-51.2H179.2V230.4l153.6 153.6h-51.2v51.2h102.4l76.8 76.8 25.6-25.6zm307.2 256 51.2 51.2V76.8h-102.4v51.2h51.2z"/>
  </symbol>

  <symbol id="folder-open" viewBox="0 0 576 512">
    <path d="M88.7 223.8L0 375.8 0 96C0 60.7 28.7 32 64 32l117.5 0c17 0 33.3 6.7 45.3 18.7l26.5 26.5c12 12 28.3 18.7 45.3 18.7L416 96c35.3 0 64 28.7 64 64l0 32-336 0c-22.8 0-43.8 12.1-55.3 31.8zm27.6 16.1C122.1 230 132.6 224 144 224l400 0c11.5 0 22 6.1 27.7 16.1s5.7 22.2-.1 32.1l-112 192C453.9 474 443.4 480 432 480L32 480c-11.5 0-22-6.1-27.7-16.1s-5.7-22.2 .1-32.1l112-192z"/>
  </symbol>

  <symbol id="horizontal-line" viewBox="0 0 448 512">
    <path d="M0 256c0-17.7 14.3-32 32-32H416c17.7 0 32 14.3 32 32s-14.3 32-32 32H32c-17.7 0-32-14.3-32-32z"></path>
  </symbol>
</svg>
