<?xml version="1.0" encoding="UTF-8"?>
<!-- Generator: Adobe Illustrator 23.1.0, SVG Export Plug-In . SVG Version: 6.00 Build 0)  -->
<svg version="1.1" id="Слой_1" xmlns="http://www.w3.org/2000/svg" xmlns:xlink="http://www.w3.org/1999/xlink" x="0px" y="0px" viewBox="0 0 36.16 22.67" style="enable-background:new 0 0 36.16 22.67;" xml:space="preserve">
<style type="text/css">
	.st0{fill:#255697;}
	.st1{fill:#DFAD19;}
	.st2{fill:#BF3225;}
	.st3{fill:#FFFFFF;}
</style>
<path class="st0" d="M33.46,0C31.65,0,12.5,0,1.81,0C0.91,0,0,0.91,0,1.81c0,5.45,0,16.33,0,18.14s0.9,2.72,2.71,2.72  c10.09,0,28.93,0,30.74,0s2.71-0.91,2.71-2.72s0-11.21,0-17.23C36.17,0.91,35.26,0,33.46,0z"/>
<g id="Master" transform="translate(-1.000000, 0.000000)">
	<g id="path2268">
		<path class="st1" d="M31.37,11.31c0,4.27-3.42,7.73-7.64,7.73s-7.65-3.46-7.65-7.73l0,0c0-4.27,3.42-7.73,7.64-7.73    C27.94,3.58,31.37,7.04,31.37,11.31L31.37,11.31L31.37,11.31L31.37,11.31L31.37,11.31z"/>
	</g>
	<g id="path1350">
		<path class="st2" d="M13.42,3.58c-4.2,0.03-7.6,3.48-7.6,7.73c0,4.27,3.43,7.73,7.65,7.73c1.98,0,3.79-0.76,5.15-2.01l0,0l0,0    c0.28-0.26,0.54-0.53,0.78-0.83h-1.57c-0.21-0.26-0.4-0.52-0.57-0.8h2.7c0.16-0.27,0.31-0.54,0.44-0.83h-3.59    c-0.12-0.27-0.23-0.54-0.32-0.81h4.23c0.26-0.77,0.39-1.59,0.39-2.45c0-0.57-0.06-1.12-0.18-1.66h-4.67    c0.06-0.27,0.13-0.54,0.22-0.81h4.23c-0.09-0.28-0.2-0.56-0.33-0.83H16.8c0.13-0.28,0.28-0.55,0.44-0.81h2.7    c-0.18-0.29-0.38-0.57-0.59-0.83h-1.5c0.23-0.28,0.49-0.54,0.77-0.78c-1.36-1.25-3.16-2.01-5.15-2.01    C13.45,3.58,13.43,3.58,13.42,3.58C13.42,3.58,13.43,3.58,13.42,3.58L13.42,3.58L13.42,3.58z"/>
	</g>
	<g id="path4157">
		<path class="st3" d="M16.21,13.28l0.1-0.7c-0.06,0-0.14,0.02-0.21,0.02c-0.28,0-0.31-0.15-0.3-0.27l0.23-1.43h0.43l0.1-0.77h-0.41    l0.08-0.48h-0.81c-0.02,0.02-0.48,2.71-0.48,3.03c0,0.48,0.27,0.7,0.65,0.7C15.9,13.38,16.13,13.3,16.21,13.28    C16.21,13.28,16.13,13.3,16.21,13.28L16.21,13.28L16.21,13.28z"/>
	</g>
	<g id="path4155">
		<path class="st3" d="M16.47,11.94c0,1.16,0.76,1.44,1.41,1.44c0.6,0,0.86-0.14,0.86-0.14l0.14-0.79c0,0-0.45,0.2-0.86,0.2    c-0.87,0-0.72-0.66-0.72-0.66h1.65c0,0,0.11-0.53,0.11-0.75c0-0.54-0.27-1.2-1.16-1.2C17.08,10.05,16.47,10.94,16.47,11.94    C16.47,11.94,16.47,10.94,16.47,11.94L16.47,11.94L16.47,11.94z M17.9,10.78c0.46,0,0.37,0.52,0.37,0.56h-0.9    C17.37,11.29,17.46,10.78,17.9,10.78C17.9,10.78,17.46,10.78,17.9,10.78L17.9,10.78L17.9,10.78z"/>
	</g>
	<g id="path4151">
		<path class="st3" d="M23.06,13.28l0.15-0.9c0,0-0.4,0.2-0.67,0.2c-0.58,0-0.81-0.45-0.81-0.92c0-0.97,0.5-1.51,1.05-1.51    c0.41,0,0.75,0.24,0.75,0.24l0.13-0.87c0,0-0.49-0.2-0.92-0.2c-0.94,0-1.85,0.82-1.85,2.37c0,1.03,0.49,1.7,1.46,1.7    C22.62,13.39,23.06,13.28,23.06,13.28L23.06,13.28L23.06,13.28L23.06,13.28z"/>
	</g>
	<g id="path4149">
		<path class="st3" d="M11.74,10.06c-0.56,0-0.99,0.18-0.99,0.18l-0.12,0.71c0,0,0.35-0.15,0.89-0.15c0.3,0,0.53,0.03,0.53,0.28    c0,0.15-0.03,0.21-0.03,0.21s-0.24-0.02-0.35-0.02c-0.7,0-1.44,0.3-1.44,1.22c0,0.72,0.48,0.89,0.79,0.89    c0.57,0,0.82-0.38,0.84-0.38l-0.03,0.31h0.72l0.32-2.27C12.86,10.09,12.03,10.06,11.74,10.06L11.74,10.06L11.74,10.06L11.74,10.06    z M11.91,11.9c0.02,0.14-0.09,0.79-0.58,0.79c-0.25,0-0.32-0.2-0.32-0.31c0-0.23,0.12-0.5,0.72-0.5    C11.87,11.88,11.89,11.9,11.91,11.9C11.91,11.9,11.89,11.9,11.91,11.9L11.91,11.9L11.91,11.9z"/>
	</g>
	<g id="path4145">
		<path class="st3" d="M13.62,13.36c0.18,0,1.23,0.05,1.23-1.05c0-1.02-0.97-0.82-0.97-1.23c0-0.2,0.16-0.27,0.45-0.27    c0.11,0,0.56,0.04,0.56,0.04l0.1-0.73c0,0-0.29-0.06-0.75-0.06c-0.6,0-1.21,0.24-1.21,1.07c0,0.94,1.02,0.85,1.02,1.24    c0,0.26-0.28,0.29-0.5,0.29c-0.38,0-0.72-0.13-0.72-0.13l-0.11,0.72C12.72,13.27,12.93,13.36,13.62,13.36    C13.62,13.36,12.93,13.36,13.62,13.36L13.62,13.36L13.62,13.36z"/>
	</g>
	<g id="path4139">
		<path class="st3" d="M29.8,9.41l-0.18,1.1c0,0-0.31-0.43-0.79-0.43c-0.75,0-1.37,0.91-1.37,1.95c0,0.67,0.33,1.33,1.01,1.33    c0.49,0,0.76-0.34,0.76-0.34l-0.04,0.29h0.79L30.6,9.4L29.8,9.41L29.8,9.41L29.8,9.41L29.8,9.41z M29.42,11.55    c0,0.43-0.21,1.02-0.65,1.02c-0.29,0-0.43-0.25-0.43-0.64c0-0.64,0.28-1.06,0.64-1.06C29.27,10.87,29.42,11.07,29.42,11.55    C29.42,11.55,29.42,11.07,29.42,11.55L29.42,11.55L29.42,11.55z"/>
	</g>
	<g id="path4133">
		<path class="st3" d="M7.33,13.32l0.5-2.95l0.07,2.95h0.56l1.05-2.95l-0.46,2.95h0.83l0.64-3.92H9.23l-0.8,2.4L8.38,9.4H7.2    l-0.65,3.92H7.33L7.33,13.32L7.33,13.32L7.33,13.32z"/>
	</g>
	<g id="path4131">
		<path class="st3" d="M19.87,13.33c0.24-1.36,0.28-2.47,0.85-2.27c0.1-0.53,0.19-0.73,0.3-0.95c0,0-0.05-0.01-0.16-0.01    c-0.37,0-0.63,0.5-0.63,0.5l0.07-0.46h-0.76l-0.51,3.19H19.87L19.87,13.33L19.87,13.33L19.87,13.33z"/>
	</g>
	<g id="path4149_1_">
		<path class="st3" d="M24.93,10.06c-0.56,0-0.99,0.18-0.99,0.18l-0.12,0.71c0,0,0.35-0.15,0.89-0.15c0.3,0,0.52,0.03,0.52,0.28    c0,0.15-0.03,0.21-0.03,0.21s-0.24-0.02-0.35-0.02c-0.7,0-1.44,0.3-1.44,1.22c0,0.72,0.49,0.89,0.79,0.89    c0.57,0,0.82-0.38,0.84-0.38l-0.03,0.31h0.72l0.32-2.27C26.05,10.09,25.22,10.06,24.93,10.06L24.93,10.06L24.93,10.06L24.93,10.06    z M25.11,11.9c0.02,0.14-0.09,0.79-0.58,0.79c-0.25,0-0.32-0.2-0.32-0.31c0-0.23,0.12-0.5,0.72-0.5    C25.07,11.88,25.08,11.9,25.11,11.9C25.11,11.9,25.08,11.9,25.11,11.9L25.11,11.9L25.11,11.9z"/>
	</g>
	<g id="path4131_1_">
		<path class="st3" d="M26.71,13.33c0.24-1.36,0.28-2.47,0.85-2.27c0.1-0.53,0.19-0.73,0.3-0.95c0,0-0.05-0.01-0.16-0.01    c-0.36,0-0.63,0.5-0.63,0.5l0.07-0.46h-0.76l-0.51,3.19H26.71L26.71,13.33L26.71,13.33L26.71,13.33z"/>
	</g>
</g>
</svg>