<?xml version="1.0" encoding="UTF-8"?>
<!-- Generator: Adobe Illustrator 23.1.0, SVG Export Plug-In . SVG Version: 6.00 Build 0)  -->
<svg version="1.1" id="Слой_1" xmlns="http://www.w3.org/2000/svg" xmlns:xlink="http://www.w3.org/1999/xlink" x="0px" y="0px" viewBox="0 0 36.17 22.67" style="enable-background:new 0 0 36.17 22.67;" xml:space="preserve">
<style type="text/css">
	.st0{fill:#FFFFFF;}
	.st1{fill:#C4C5C6;}
	.st2{clip-path:url(#SVGID_2_);fill:#FFFFFF;}
	.st3{clip-path:url(#SVGID_4_);fill:#FFFFFF;}
	.st4{clip-path:url(#SVGID_6_);fill:#FFFFFF;}
	.st5{clip-path:url(#SVGID_8_);fill:none;}
	.st6{clip-path:url(#SVGID_10_);fill:none;}
	.st7{clip-path:url(#SVGID_12_);fill:none;}
	.st8{clip-path:url(#SVGID_14_);fill:none;}
	.st9{clip-path:url(#SVGID_16_);fill:none;}
	.st10{clip-path:url(#SVGID_18_);fill:none;}
	.st11{clip-path:url(#SVGID_20_);fill:none;}
	.st12{clip-path:url(#SVGID_22_);fill:none;}
	.st13{clip-path:url(#SVGID_24_);fill:none;}
	.st14{clip-path:url(#SVGID_26_);fill:none;}
	.st15{clip-path:url(#SVGID_28_);fill:none;}
	.st16{clip-path:url(#SVGID_30_);fill:none;}
	.st17{clip-path:url(#SVGID_32_);fill:none;}
	.st18{clip-path:url(#SVGID_34_);fill:none;}
	.st19{clip-path:url(#SVGID_36_);fill:none;}
	.st20{clip-path:url(#SVGID_38_);fill:none;}
	.st21{clip-path:url(#SVGID_40_);fill:none;}
	.st22{clip-path:url(#SVGID_42_);fill:none;}
	.st23{clip-path:url(#SVGID_44_);fill:none;}
	.st24{clip-path:url(#SVGID_46_);fill:none;}
	.st25{clip-path:url(#SVGID_48_);fill:none;}
	.st26{clip-path:url(#SVGID_50_);fill:#F6F6F5;}
	.st27{clip-path:url(#SVGID_52_);fill:none;}
	.st28{clip-path:url(#SVGID_54_);fill:none;}
	.st29{clip-path:url(#SVGID_56_);fill:none;}
	.st30{clip-path:url(#SVGID_58_);fill:none;}
	.st31{clip-path:url(#SVGID_60_);fill:none;}
	.st32{clip-path:url(#SVGID_62_);fill:none;}
	.st33{clip-path:url(#SVGID_64_);fill:#F2F2F2;}
	.st34{clip-path:url(#SVGID_66_);fill:none;}
	.st35{clip-path:url(#SVGID_68_);fill:none;}
	.st36{clip-path:url(#SVGID_70_);fill:none;}
	.st37{clip-path:url(#SVGID_72_);fill:none;}
	.st38{clip-path:url(#SVGID_74_);fill:none;}
	.st39{clip-path:url(#SVGID_76_);fill:#F0F0F0;}
	.st40{clip-path:url(#SVGID_78_);fill:#F0F0F0;}
	.st41{clip-path:url(#SVGID_80_);fill:#EFEFEF;}
	.st42{clip-path:url(#SVGID_82_);fill:#EEEEEE;}
	.st43{clip-path:url(#SVGID_84_);fill:#EDEDED;}
	.st44{clip-path:url(#SVGID_86_);fill:#ECECEC;}
	.st45{clip-path:url(#SVGID_88_);fill:#ECEBEB;}
	.st46{clip-path:url(#SVGID_90_);fill:#EBEAEB;}
	.st47{clip-path:url(#SVGID_92_);fill:#EAEAEA;}
	.st48{clip-path:url(#SVGID_94_);fill:#E9E9E9;}
	.st49{clip-path:url(#SVGID_96_);fill:#E8E8E8;}
	.st50{clip-path:url(#SVGID_98_);fill:#E7E7E7;}
	.st51{clip-path:url(#SVGID_100_);fill:#E6E6E6;}
	.st52{fill:#CCCCCB;}
	.st53{fill:#255697;}
	.st54{fill:#D97C17;}
</style>
<g id="Rectangle-1_7_">
	<g>
		<path class="st0" d="M2.74,22.54c-1.73,0-2.57-0.84-2.57-2.58V1.82c0-0.83,0.84-1.67,1.66-1.67h31.61c1.73,0,2.57,0.84,2.57,2.58    v17.23c0,1.74-0.84,2.58-2.57,2.58H2.74z"/>
		<path class="st1" d="M33.44,0.29c1.65,0,2.43,0.77,2.43,2.44v17.23c0,1.66-0.77,2.44-2.43,2.44H2.74c-1.65,0-2.43-0.77-2.43-2.44    V1.82c0-0.74,0.78-1.53,1.52-1.53H33.44 M33.44,0C31.63,0,12.51,0,1.83,0c-0.9,0-1.81,0.91-1.81,1.81v18.14    c0,1.81,0.9,2.72,2.71,2.72c10.07,0,28.9,0,30.71,0c1.81,0,2.71-0.91,2.71-2.72V2.73C36.15,0.91,35.25,0,33.44,0L33.44,0z"/>
	</g>
</g>
<g>
	<g>
		<g>
			<g>
				<defs>
					<path id="SVGID_1_" d="M0.04,1.85c0-0.88,0.89-1.77,1.77-1.77h31.64c1.8,0,2.67,0.88,2.67,2.68"/>
				</defs>
				<clipPath id="SVGID_2_">
					<use xlink:href="#SVGID_1_" style="overflow:visible;"/>
				</clipPath>
				<polygon class="st2" points="5.81,0.07 0.04,4.67 0.04,0.07     "/>
			</g>
		</g>
		<g>
			<g>
				<defs>
					<path id="SVGID_3_" d="M0.04,1.85c0-0.88,0.89-1.77,1.77-1.77h31.64c1.8,0,2.67,0.88,2.67,2.68"/>
				</defs>
				<clipPath id="SVGID_4_">
					<use xlink:href="#SVGID_3_" style="overflow:visible;"/>
				</clipPath>
				<polyline class="st3" points="0.04,4.67 5.81,0.07 7.79,0.07     "/>
			</g>
		</g>
		<g>
			<g>
				<defs>
					<path id="SVGID_5_" d="M0.04,1.85c0-0.88,0.89-1.77,1.77-1.77h31.64c1.8,0,2.67,0.88,2.67,2.68"/>
				</defs>
				<clipPath id="SVGID_6_">
					<use xlink:href="#SVGID_5_" style="overflow:visible;"/>
				</clipPath>
				<path class="st4" d="M0.04,6.25"/>
			</g>
		</g>
		<g>
			<g>
				<defs>
					<path id="SVGID_7_" d="M0.04,1.85c0-0.88,0.89-1.77,1.77-1.77h31.64c1.8,0,2.67,0.88,2.67,2.68"/>
				</defs>
				<clipPath id="SVGID_8_">
					<use xlink:href="#SVGID_7_" style="overflow:visible;"/>
				</clipPath>
				<line class="st5" x1="7.79" y1="0.07" x2="9.78" y2="0.07"/>
			</g>
		</g>
		<g>
			<g>
				<defs>
					<path id="SVGID_9_" d="M0.04,1.85c0-0.88,0.89-1.77,1.77-1.77h31.64c1.8,0,2.67,0.88,2.67,2.68"/>
				</defs>
				<clipPath id="SVGID_10_">
					<use xlink:href="#SVGID_9_" style="overflow:visible;"/>
				</clipPath>
				<line class="st6" x1="0.04" y1="7.84" x2="0.04" y2="6.25"/>
			</g>
		</g>
		<g>
			<g>
				<defs>
					<path id="SVGID_11_" d="M0.04,1.85c0-0.88,0.89-1.77,1.77-1.77h31.64c1.8,0,2.67,0.88,2.67,2.68"/>
				</defs>
				<clipPath id="SVGID_12_">
					<use xlink:href="#SVGID_11_" style="overflow:visible;"/>
				</clipPath>
				<line class="st7" x1="9.78" y1="0.07" x2="11.76" y2="0.07"/>
			</g>
		</g>
		<g>
			<g>
				<defs>
					<path id="SVGID_13_" d="M0.04,1.85c0-0.88,0.89-1.77,1.77-1.77h31.64c1.8,0,2.67,0.88,2.67,2.68"/>
				</defs>
				<clipPath id="SVGID_14_">
					<use xlink:href="#SVGID_13_" style="overflow:visible;"/>
				</clipPath>
				<line class="st8" x1="0.04" y1="9.42" x2="0.04" y2="7.84"/>
			</g>
		</g>
		<g>
			<g>
				<defs>
					<path id="SVGID_15_" d="M0.04,1.85c0-0.88,0.89-1.77,1.77-1.77h31.64c1.8,0,2.67,0.88,2.67,2.68"/>
				</defs>
				<clipPath id="SVGID_16_">
					<use xlink:href="#SVGID_15_" style="overflow:visible;"/>
				</clipPath>
				<line class="st9" x1="11.76" y1="0.07" x2="13.75" y2="0.07"/>
			</g>
		</g>
		<g>
			<g>
				<defs>
					<path id="SVGID_17_" d="M0.04,1.85c0-0.88,0.89-1.77,1.77-1.77h31.64c1.8,0,2.67,0.88,2.67,2.68"/>
				</defs>
				<clipPath id="SVGID_18_">
					<use xlink:href="#SVGID_17_" style="overflow:visible;"/>
				</clipPath>
				<line class="st10" x1="0.04" y1="11" x2="0.04" y2="9.42"/>
			</g>
		</g>
		<g>
			<g>
				<defs>
					<path id="SVGID_19_" d="M0.04,1.85c0-0.88,0.89-1.77,1.77-1.77h31.64c1.8,0,2.67,0.88,2.67,2.68"/>
				</defs>
				<clipPath id="SVGID_20_">
					<use xlink:href="#SVGID_19_" style="overflow:visible;"/>
				</clipPath>
				<line class="st11" x1="13.75" y1="0.07" x2="15.73" y2="0.07"/>
			</g>
		</g>
		<g>
			<g>
				<defs>
					<path id="SVGID_21_" d="M0.04,1.85c0-0.88,0.89-1.77,1.77-1.77h31.64c1.8,0,2.67,0.88,2.67,2.68"/>
				</defs>
				<clipPath id="SVGID_22_">
					<use xlink:href="#SVGID_21_" style="overflow:visible;"/>
				</clipPath>
				<line class="st12" x1="0.04" y1="12.58" x2="0.04" y2="11"/>
			</g>
		</g>
		<g>
			<g>
				<defs>
					<path id="SVGID_23_" d="M0.04,1.85c0-0.88,0.89-1.77,1.77-1.77h31.64c1.8,0,2.67,0.88,2.67,2.68"/>
				</defs>
				<clipPath id="SVGID_24_">
					<use xlink:href="#SVGID_23_" style="overflow:visible;"/>
				</clipPath>
				<line class="st13" x1="15.73" y1="0.07" x2="17.72" y2="0.07"/>
			</g>
		</g>
		<g>
			<g>
				<defs>
					<path id="SVGID_25_" d="M0.04,1.85c0-0.88,0.89-1.77,1.77-1.77h31.64c1.8,0,2.67,0.88,2.67,2.68"/>
				</defs>
				<clipPath id="SVGID_26_">
					<use xlink:href="#SVGID_25_" style="overflow:visible;"/>
				</clipPath>
				<line class="st14" x1="0.04" y1="14.17" x2="0.04" y2="12.58"/>
			</g>
		</g>
		<g>
			<g>
				<defs>
					<path id="SVGID_27_" d="M0.04,1.85c0-0.88,0.89-1.77,1.77-1.77h31.64c1.8,0,2.67,0.88,2.67,2.68"/>
				</defs>
				<clipPath id="SVGID_28_">
					<use xlink:href="#SVGID_27_" style="overflow:visible;"/>
				</clipPath>
				<line class="st15" x1="17.72" y1="0.07" x2="19.71" y2="0.07"/>
			</g>
		</g>
		<g>
			<g>
				<defs>
					<path id="SVGID_29_" d="M0.04,1.85c0-0.88,0.89-1.77,1.77-1.77h31.64c1.8,0,2.67,0.88,2.67,2.68"/>
				</defs>
				<clipPath id="SVGID_30_">
					<use xlink:href="#SVGID_29_" style="overflow:visible;"/>
				</clipPath>
				<line class="st16" x1="0.04" y1="15.75" x2="0.04" y2="14.17"/>
			</g>
		</g>
		<g>
			<g>
				<defs>
					<path id="SVGID_31_" d="M0.04,1.85c0-0.88,0.89-1.77,1.77-1.77h31.64c1.8,0,2.67,0.88,2.67,2.68"/>
				</defs>
				<clipPath id="SVGID_32_">
					<use xlink:href="#SVGID_31_" style="overflow:visible;"/>
				</clipPath>
				<line class="st17" x1="19.71" y1="0.07" x2="21.69" y2="0.07"/>
			</g>
		</g>
		<g>
			<g>
				<defs>
					<path id="SVGID_33_" d="M0.04,1.85c0-0.88,0.89-1.77,1.77-1.77h31.64c1.8,0,2.67,0.88,2.67,2.68"/>
				</defs>
				<clipPath id="SVGID_34_">
					<use xlink:href="#SVGID_33_" style="overflow:visible;"/>
				</clipPath>
				<line class="st18" x1="0.04" y1="17.33" x2="0.04" y2="15.75"/>
			</g>
		</g>
		<g>
			<g>
				<defs>
					<path id="SVGID_35_" d="M0.04,1.85c0-0.88,0.89-1.77,1.77-1.77h31.64c1.8,0,2.67,0.88,2.67,2.68"/>
				</defs>
				<clipPath id="SVGID_36_">
					<use xlink:href="#SVGID_35_" style="overflow:visible;"/>
				</clipPath>
				<line class="st19" x1="21.69" y1="0.07" x2="23.68" y2="0.07"/>
			</g>
		</g>
		<g>
			<g>
				<defs>
					<path id="SVGID_37_" d="M0.04,1.85c0-0.88,0.89-1.77,1.77-1.77h31.64c1.8,0,2.67,0.88,2.67,2.68"/>
				</defs>
				<clipPath id="SVGID_38_">
					<use xlink:href="#SVGID_37_" style="overflow:visible;"/>
				</clipPath>
				<line class="st20" x1="0.04" y1="18.92" x2="0.04" y2="17.33"/>
			</g>
		</g>
		<g>
			<g>
				<defs>
					<path id="SVGID_39_" d="M0.04,1.85c0-0.88,0.89-1.77,1.77-1.77h31.64c1.8,0,2.67,0.88,2.67,2.68"/>
				</defs>
				<clipPath id="SVGID_40_">
					<use xlink:href="#SVGID_39_" style="overflow:visible;"/>
				</clipPath>
				<line class="st21" x1="23.68" y1="0.07" x2="25.66" y2="0.07"/>
			</g>
		</g>
		<g>
			<g>
				<defs>
					<path id="SVGID_41_" d="M0.04,1.85c0-0.88,0.89-1.77,1.77-1.77h31.64c1.8,0,2.67,0.88,2.67,2.68"/>
				</defs>
				<clipPath id="SVGID_42_">
					<use xlink:href="#SVGID_41_" style="overflow:visible;"/>
				</clipPath>
				<line class="st22" x1="0.04" y1="20.5" x2="0.04" y2="18.92"/>
			</g>
		</g>
		<g>
			<g>
				<defs>
					<path id="SVGID_43_" d="M0.04,1.85c0-0.88,0.89-1.77,1.77-1.77h31.64c1.8,0,2.67,0.88,2.67,2.68"/>
				</defs>
				<clipPath id="SVGID_44_">
					<use xlink:href="#SVGID_43_" style="overflow:visible;"/>
				</clipPath>
				<line class="st23" x1="25.66" y1="0.07" x2="27.65" y2="0.07"/>
			</g>
		</g>
		<g>
			<g>
				<defs>
					<path id="SVGID_45_" d="M0.04,1.85c0-0.88,0.89-1.77,1.77-1.77h31.64c1.8,0,2.67,0.88,2.67,2.68"/>
				</defs>
				<clipPath id="SVGID_46_">
					<use xlink:href="#SVGID_45_" style="overflow:visible;"/>
				</clipPath>
				<line class="st24" x1="0.04" y1="22.08" x2="0.04" y2="20.5"/>
			</g>
		</g>
		<g>
			<g>
				<defs>
					<path id="SVGID_47_" d="M0.04,1.85c0-0.88,0.89-1.77,1.77-1.77h31.64c1.8,0,2.67,0.88,2.67,2.68"/>
				</defs>
				<clipPath id="SVGID_48_">
					<use xlink:href="#SVGID_47_" style="overflow:visible;"/>
				</clipPath>
				<line class="st25" x1="27.65" y1="0.07" x2="29.63" y2="0.07"/>
			</g>
		</g>
		<g>
			<g>
				<defs>
					<path id="SVGID_49_" d="M0.04,1.85c0-0.88,0.89-1.77,1.77-1.77h31.64c1.8,0,2.67,0.88,2.67,2.68"/>
				</defs>
				<clipPath id="SVGID_50_">
					<use xlink:href="#SVGID_49_" style="overflow:visible;"/>
				</clipPath>
				<polyline class="st26" points="1.36,22.61 0.04,22.61 0.04,22.08     "/>
			</g>
		</g>
		<g>
			<g>
				<defs>
					<path id="SVGID_51_" d="M0.04,1.85c0-0.88,0.89-1.77,1.77-1.77h31.64c1.8,0,2.67,0.88,2.67,2.68"/>
				</defs>
				<clipPath id="SVGID_52_">
					<use xlink:href="#SVGID_51_" style="overflow:visible;"/>
				</clipPath>
				<line class="st27" x1="29.63" y1="0.07" x2="31.62" y2="0.07"/>
			</g>
		</g>
		<g>
			<g>
				<defs>
					<path id="SVGID_53_" d="M0.04,1.85c0-0.88,0.89-1.77,1.77-1.77h31.64c1.8,0,2.67,0.88,2.67,2.68"/>
				</defs>
				<clipPath id="SVGID_54_">
					<use xlink:href="#SVGID_53_" style="overflow:visible;"/>
				</clipPath>
				<line class="st28" x1="3.34" y1="22.61" x2="1.36" y2="22.61"/>
			</g>
		</g>
		<g>
			<g>
				<defs>
					<path id="SVGID_55_" d="M0.04,1.85c0-0.88,0.89-1.77,1.77-1.77h31.64c1.8,0,2.67,0.88,2.67,2.68"/>
				</defs>
				<clipPath id="SVGID_56_">
					<use xlink:href="#SVGID_55_" style="overflow:visible;"/>
				</clipPath>
				<line class="st29" x1="31.62" y1="0.07" x2="33.61" y2="0.07"/>
			</g>
		</g>
		<g>
			<g>
				<defs>
					<path id="SVGID_57_" d="M0.04,1.85c0-0.88,0.89-1.77,1.77-1.77h31.64c1.8,0,2.67,0.88,2.67,2.68"/>
				</defs>
				<clipPath id="SVGID_58_">
					<use xlink:href="#SVGID_57_" style="overflow:visible;"/>
				</clipPath>
				<line class="st30" x1="5.33" y1="22.61" x2="3.34" y2="22.61"/>
			</g>
		</g>
		<g>
			<g>
				<defs>
					<path id="SVGID_59_" d="M0.04,1.85c0-0.88,0.89-1.77,1.77-1.77h31.64c1.8,0,2.67,0.88,2.67,2.68"/>
				</defs>
				<clipPath id="SVGID_60_">
					<use xlink:href="#SVGID_59_" style="overflow:visible;"/>
				</clipPath>
				<line class="st31" x1="33.61" y1="0.07" x2="35.59" y2="0.07"/>
			</g>
		</g>
		<g>
			<g>
				<defs>
					<path id="SVGID_61_" d="M0.04,1.85c0-0.88,0.89-1.77,1.77-1.77h31.64c1.8,0,2.67,0.88,2.67,2.68"/>
				</defs>
				<clipPath id="SVGID_62_">
					<use xlink:href="#SVGID_61_" style="overflow:visible;"/>
				</clipPath>
				<line class="st32" x1="7.32" y1="22.61" x2="5.33" y2="22.61"/>
			</g>
		</g>
		<g>
			<g>
				<defs>
					<path id="SVGID_63_" d="M0.04,1.85c0-0.88,0.89-1.77,1.77-1.77h31.64c1.8,0,2.67,0.88,2.67,2.68"/>
				</defs>
				<clipPath id="SVGID_64_">
					<use xlink:href="#SVGID_63_" style="overflow:visible;"/>
				</clipPath>
				<polyline class="st33" points="35.59,0.07 36.13,0.07 36.13,1.23     "/>
			</g>
		</g>
		<g>
			<g>
				<defs>
					<path id="SVGID_65_" d="M0.04,1.85c0-0.88,0.89-1.77,1.77-1.77h31.64c1.8,0,2.67,0.88,2.67,2.68"/>
				</defs>
				<clipPath id="SVGID_66_">
					<use xlink:href="#SVGID_65_" style="overflow:visible;"/>
				</clipPath>
				<line class="st34" x1="9.3" y1="22.61" x2="7.32" y2="22.61"/>
			</g>
		</g>
		<g>
			<g>
				<defs>
					<path id="SVGID_67_" d="M0.04,1.85c0-0.88,0.89-1.77,1.77-1.77h31.64c1.8,0,2.67,0.88,2.67,2.68"/>
				</defs>
				<clipPath id="SVGID_68_">
					<use xlink:href="#SVGID_67_" style="overflow:visible;"/>
				</clipPath>
				<line class="st35" x1="36.13" y1="1.23" x2="36.13" y2="2.82"/>
			</g>
		</g>
		<g>
			<g>
				<defs>
					<path id="SVGID_69_" d="M0.04,1.85c0-0.88,0.89-1.77,1.77-1.77h31.64c1.8,0,2.67,0.88,2.67,2.68"/>
				</defs>
				<clipPath id="SVGID_70_">
					<use xlink:href="#SVGID_69_" style="overflow:visible;"/>
				</clipPath>
				<line class="st36" x1="11.29" y1="22.61" x2="9.3" y2="22.61"/>
			</g>
		</g>
		<g>
			<g>
				<defs>
					<path id="SVGID_71_" d="M0.04,1.85c0-0.88,0.89-1.77,1.77-1.77h31.64c1.8,0,2.67,0.88,2.67,2.68"/>
				</defs>
				<clipPath id="SVGID_72_">
					<use xlink:href="#SVGID_71_" style="overflow:visible;"/>
				</clipPath>
				<line class="st37" x1="36.13" y1="2.82" x2="36.13" y2="4.4"/>
			</g>
		</g>
		<g>
			<g>
				<defs>
					<path id="SVGID_73_" d="M0.04,1.85c0-0.88,0.89-1.77,1.77-1.77h31.64c1.8,0,2.67,0.88,2.67,2.68"/>
				</defs>
				<clipPath id="SVGID_74_">
					<use xlink:href="#SVGID_73_" style="overflow:visible;"/>
				</clipPath>
				<line class="st38" x1="13.27" y1="22.61" x2="11.29" y2="22.61"/>
			</g>
		</g>
		<g>
			<g>
				<defs>
					<path id="SVGID_75_" d="M0.04,1.85c0-0.88,0.89-1.77,1.77-1.77h31.64c1.8,0,2.67,0.88,2.67,2.68"/>
				</defs>
				<clipPath id="SVGID_76_">
					<use xlink:href="#SVGID_75_" style="overflow:visible;"/>
				</clipPath>
				<path class="st39" d="M36.13,4.4"/>
			</g>
		</g>
		<g>
			<g>
				<defs>
					<path id="SVGID_77_" d="M0.04,1.85c0-0.88,0.89-1.77,1.77-1.77h31.64c1.8,0,2.67,0.88,2.67,2.68"/>
				</defs>
				<clipPath id="SVGID_78_">
					<use xlink:href="#SVGID_77_" style="overflow:visible;"/>
				</clipPath>
				<polyline class="st40" points="36.13,5.98 15.26,22.61 13.27,22.61     "/>
			</g>
		</g>
		<g>
			<g>
				<defs>
					<path id="SVGID_79_" d="M0.04,1.85c0-0.88,0.89-1.77,1.77-1.77h31.64c1.8,0,2.67,0.88,2.67,2.68"/>
				</defs>
				<clipPath id="SVGID_80_">
					<use xlink:href="#SVGID_79_" style="overflow:visible;"/>
				</clipPath>
				<polygon class="st41" points="36.13,7.56 17.24,22.61 15.26,22.61 36.13,5.98     "/>
			</g>
		</g>
		<g>
			<g>
				<defs>
					<path id="SVGID_81_" d="M0.04,1.85c0-0.88,0.89-1.77,1.77-1.77h31.64c1.8,0,2.67,0.88,2.67,2.68"/>
				</defs>
				<clipPath id="SVGID_82_">
					<use xlink:href="#SVGID_81_" style="overflow:visible;"/>
				</clipPath>
				<polygon class="st42" points="36.13,9.15 19.23,22.61 17.24,22.61 36.13,7.56     "/>
			</g>
		</g>
		<g>
			<g>
				<defs>
					<path id="SVGID_83_" d="M0.04,1.85c0-0.88,0.89-1.77,1.77-1.77h31.64c1.8,0,2.67,0.88,2.67,2.68"/>
				</defs>
				<clipPath id="SVGID_84_">
					<use xlink:href="#SVGID_83_" style="overflow:visible;"/>
				</clipPath>
				<polygon class="st43" points="36.13,10.73 21.22,22.61 19.23,22.61 36.13,9.15     "/>
			</g>
		</g>
		<g>
			<g>
				<defs>
					<path id="SVGID_85_" d="M0.04,1.85c0-0.88,0.89-1.77,1.77-1.77h31.64c1.8,0,2.67,0.88,2.67,2.68"/>
				</defs>
				<clipPath id="SVGID_86_">
					<use xlink:href="#SVGID_85_" style="overflow:visible;"/>
				</clipPath>
				<polygon class="st44" points="36.13,12.31 23.2,22.61 21.22,22.61 36.13,10.73     "/>
			</g>
		</g>
		<g>
			<g>
				<defs>
					<path id="SVGID_87_" d="M0.04,1.85c0-0.88,0.89-1.77,1.77-1.77h31.64c1.8,0,2.67,0.88,2.67,2.68"/>
				</defs>
				<clipPath id="SVGID_88_">
					<use xlink:href="#SVGID_87_" style="overflow:visible;"/>
				</clipPath>
				<polygon class="st45" points="36.13,13.9 25.19,22.61 23.2,22.61 36.13,12.31     "/>
			</g>
		</g>
		<g>
			<g>
				<defs>
					<path id="SVGID_89_" d="M0.04,1.85c0-0.88,0.89-1.77,1.77-1.77h31.64c1.8,0,2.67,0.88,2.67,2.68"/>
				</defs>
				<clipPath id="SVGID_90_">
					<use xlink:href="#SVGID_89_" style="overflow:visible;"/>
				</clipPath>
				<polygon class="st46" points="36.13,15.48 27.17,22.61 25.19,22.61 36.13,13.9     "/>
			</g>
		</g>
		<g>
			<g>
				<defs>
					<path id="SVGID_91_" d="M0.04,1.85c0-0.88,0.89-1.77,1.77-1.77h31.64c1.8,0,2.67,0.88,2.67,2.68"/>
				</defs>
				<clipPath id="SVGID_92_">
					<use xlink:href="#SVGID_91_" style="overflow:visible;"/>
				</clipPath>
				<polygon class="st47" points="36.13,17.06 29.16,22.61 27.17,22.61 36.13,15.48     "/>
			</g>
		</g>
		<g>
			<g>
				<defs>
					<path id="SVGID_93_" d="M0.04,1.85c0-0.88,0.89-1.77,1.77-1.77h31.64c1.8,0,2.67,0.88,2.67,2.68"/>
				</defs>
				<clipPath id="SVGID_94_">
					<use xlink:href="#SVGID_93_" style="overflow:visible;"/>
				</clipPath>
				<polygon class="st48" points="36.13,18.64 31.14,22.61 29.16,22.61 36.13,17.06     "/>
			</g>
		</g>
		<g>
			<g>
				<defs>
					<path id="SVGID_95_" d="M0.04,1.85c0-0.88,0.89-1.77,1.77-1.77h31.64c1.8,0,2.67,0.88,2.67,2.68"/>
				</defs>
				<clipPath id="SVGID_96_">
					<use xlink:href="#SVGID_95_" style="overflow:visible;"/>
				</clipPath>
				<polygon class="st49" points="36.13,20.23 33.13,22.61 31.14,22.61 36.13,18.64     "/>
			</g>
		</g>
		<g>
			<g>
				<defs>
					<path id="SVGID_97_" d="M0.04,1.85c0-0.88,0.89-1.77,1.77-1.77h31.64c1.8,0,2.67,0.88,2.67,2.68"/>
				</defs>
				<clipPath id="SVGID_98_">
					<use xlink:href="#SVGID_97_" style="overflow:visible;"/>
				</clipPath>
				<polygon class="st50" points="36.13,21.81 35.12,22.61 33.13,22.61 36.13,20.23     "/>
			</g>
		</g>
		<g>
			<g>
				<defs>
					<path id="SVGID_99_" d="M0.04,1.85c0-0.88,0.89-1.77,1.77-1.77h31.64c1.8,0,2.67,0.88,2.67,2.68"/>
				</defs>
				<clipPath id="SVGID_100_">
					<use xlink:href="#SVGID_99_" style="overflow:visible;"/>
				</clipPath>
				<polygon class="st51" points="35.12,22.61 36.13,21.81 36.13,22.61     "/>
			</g>
		</g>
	</g>
</g>
<g>
	<path class="st52" d="M0.08,1.85c0-0.86,0.88-1.73,1.73-1.73h31.64 M36.09,19.94c0,0.88-0.22,1.55-0.66,1.98   c-0.44,0.44-1.1,0.66-1.98,0.66H2.71c-0.88,0-1.55-0.22-1.98-0.66c-0.44-0.44-0.66-1.1-0.66-1.98 M33.45,0.11   c0.88,0,1.55,0.22,1.98,0.66c0.44,0.44,0.66,1.1,0.66,1.98 M36.17,2.75c0-1.81-0.9-2.71-2.71-2.71l0,0c-1.81,0-20.95,0-31.64,0   c-0.9,0-1.81,0.9-1.81,1.81 M0,19.94c0,1.81,0.9,2.71,2.71,2.71c10.09,0,28.93,0,30.74,0c1.81,0,2.71-0.9,2.71-2.71"/>
</g>
<g id="Visa">
	<g id="Rectangle-1_3_">
		<path class="st53" d="M36.14,2.79c0-1.81-0.9-2.71-2.71-2.71c-1.81,0-20.92,0-31.59,0c-0.9,0-1.81,0.9-1.81,1.8v2.71h36.11"/>
	</g>
	<g id="Rectangle-1_1_">
		<path class="st54" d="M0.04,18.13c0,0,0,0,0,1.81s0.9,2.71,2.71,2.71c10.07,0,28.89,0,30.69,0c1.8,0,2.71-0.9,2.71-2.71v-1.81    H0.04z"/>
	</g>
	<g id="Shape_16_">
		<path class="st53" d="M25.22,6.8c-0.51-0.19-1.3-0.4-2.29-0.4c-2.52,0-4.3,1.3-4.32,3.16c-0.01,1.38,1.27,2.14,2.24,2.6    c0.99,0.47,1.33,0.77,1.32,1.19c-0.01,0.64-0.79,0.93-1.53,0.93c-1.02,0-1.56-0.14-2.4-0.5l-0.33-0.15l-0.36,2.14    c0.6,0.27,1.7,0.5,2.85,0.51c2.69,0,4.43-1.28,4.45-3.27c0.01-1.09-0.67-1.92-2.14-2.6c-0.89-0.44-1.44-0.74-1.43-1.19    c0-0.4,0.46-0.82,1.46-0.82c0.84-0.01,1.44,0.17,1.91,0.37l0.23,0.11L25.22,6.8"/>
	</g>
	<g id="Shape_15_">
		<path class="st53" d="M31.77,6.57H29.8c-0.61,0-1.07,0.17-1.34,0.79l-3.79,8.77h2.68c0,0,0.44-1.18,0.54-1.44c0.29,0,2.9,0,3.27,0    c0.08,0.34,0.31,1.43,0.31,1.43h2.37L31.77,6.57L31.77,6.57z M28.62,12.75c0.21-0.55,1.02-2.68,1.02-2.68    c-0.01,0.03,0.21-0.55,0.34-0.91l0.17,0.83c0,0,0.49,2.29,0.59,2.76H28.62L28.62,12.75L28.62,12.75L28.62,12.75z"/>
	</g>
	<g id="Shape_14_">
		<path class="st53" d="M13.41,16.14l1.6-9.57h2.55l-1.6,9.57H13.41z"/>
	</g>
	<g id="Shape_13_">
		<path class="st53" d="M11.26,6.57l-2.5,6.53l-0.27-1.33c-0.47-1.53-1.92-3.19-3.54-4.02l2.29,8.37h2.7l4.02-9.56L11.26,6.57"/>
	</g>
	<g id="Shape_12_">
		<path class="st54" d="M6.44,6.57H2.32l-0.03,0.2c3.2,0.79,5.32,2.71,6.21,5.01l-0.9-4.4C7.45,6.77,7,6.59,6.44,6.57"/>
	</g>
</g>
</svg>