/* XPM */
static char * sample2_xpm[] = {
"32 32 3 1",
" 	c None",
".	c #FFFFFF",
"+	c #FF0000",
"................................",
"................................",
"................................",
"................................",
"................................",
"................................",
"......++..................++....",
"......+++................+++....",
".......+++..............+++.....",
"........+++............+++......",
".........+++..........+++.......",
"..........+++........+++........",
"...........+++......+++.........",
"............+++....+++..........",
".............+++..+++...........",
"..............++++++............",
"...............++++.............",
"................+++.............",
"...............+++++............",
"..............+++.+++...........",
".............+++...+++..........",
"............+++.....+++.........",
"...........+++.......+++........",
"..........+++.........+++.......",
".........+++...........+++......",
"........+++.............+++.....",
".......+++...............+++....",
"......+++.................+++...",
"......++...................++...",
"................................",
"................................",
"................................"};
